<svg width="4" height="10" viewBox="0 0 4 10" fill="none" xmlns="http://www.w3.org/2000/svg">
<path d="M3.42432 0.246582L1.96533 8.82471H0.95166L2.20557 1.63525L0.318848 2.42627L0.506348 1.38916L3.24854 0.246582H3.42432Z" fill="black"/>
<path d="M3.3788 0.429034L3.13624 0.368526L3.3788 0.429034ZM3.35605 0.52026L3.59862 0.580768L3.35605 0.52026ZM3.35629 0.710494L3.11278 0.767065L3.35629 0.710494ZM3.37929 0.809503L3.13578 0.866074L3.37929 0.809503ZM3.40229 0.908511L3.64581 0.85194L3.40229 0.908511ZM3.35732 1.09105L3.16341 0.933262L3.35732 1.09105ZM3.19083 1.44312L2.95628 1.52965L3.19083 1.44312ZM3.26569 1.64605L3.50024 1.55952L3.26569 1.64605ZM3.22567 1.82943L3.40734 2.00119L3.22567 1.82943ZM3.07077 1.99328L2.8891 1.82153L3.07077 1.99328ZM2.99545 2.17066L2.74551 2.17625L2.99545 2.17066ZM2.99971 2.36158L3.24965 2.356L2.99971 2.36158ZM2.97735 2.54797L2.73595 2.48294L2.97735 2.54797ZM2.92835 2.72983L3.16975 2.79486L2.92835 2.72983ZM2.93746 2.92157L2.70029 3.00062L2.93746 2.92157ZM2.97106 3.02238L3.20823 2.94333L2.97106 3.02238ZM3.00466 3.12319L2.76749 3.20225L3.00466 3.12319ZM2.97786 3.30883L3.18149 3.45385L2.97786 3.30883ZM2.85704 3.47847L2.6534 3.33344L2.85704 3.47847ZM2.77595 3.65487L2.53209 3.59979L2.77595 3.65487ZM2.75526 3.74645L2.51141 3.69137L2.75526 3.74645ZM2.73458 3.83803L2.97844 3.8931L2.73458 3.83803ZM2.74504 4.03L2.98381 3.95593L2.74504 4.03ZM2.80732 4.23078L2.56855 4.30485L2.80732 4.23078ZM2.77031 4.41468L2.96399 4.57276L2.77031 4.41468ZM2.70215 4.49819L2.50848 4.3401L2.70215 4.49819ZM2.63399 4.58169L2.82767 4.73977L2.63399 4.58169ZM2.56307 4.75982L2.31318 4.75251L2.56307 4.75982ZM2.5603 4.85444L2.81019 4.86176L2.5603 4.85444ZM2.55753 4.94907L2.80742 4.95638L2.55753 4.94907ZM2.58364 5.1437L2.82383 5.07435L2.58364 5.1437ZM2.61252 5.24371L2.37233 5.31307L2.61252 5.24371ZM2.64139 5.34372L2.88158 5.27436L2.64139 5.34372ZM2.61417 5.52928L2.82324 5.66637L2.61417 5.52928ZM2.55807 5.61484L2.34901 5.47775L2.55807 5.61484ZM2.50198 5.70039L2.29291 5.56331V5.56331L2.50198 5.70039ZM2.40579 5.87422L2.63341 5.9776L2.40579 5.87422ZM2.3657 5.9625L2.59332 6.06588L2.3657 5.9625ZM2.32561 6.05078L2.09798 5.94741L2.32561 6.05078ZM2.27696 6.2327L2.02799 6.20994L2.27696 6.2327ZM2.2684 6.32634L2.51736 6.3491L2.2684 6.32634ZM2.28888 6.61511L2.52331 6.52825L2.28888 6.61511ZM2.36409 6.8181L2.12967 6.90496L2.36409 6.8181ZM2.32942 7.00239L2.14108 6.83798L2.32942 7.00239ZM2.18485 7.168L2.37318 7.33241L2.18485 7.168ZM2.10645 7.34485L1.85697 7.32863L2.10645 7.34485ZM2.09421 7.53296L2.34369 7.54919L2.09421 7.53296ZM2.07252 7.71947L1.82599 7.67793L2.07252 7.71947ZM2.04136 7.90436L2.28789 7.9459L2.04136 7.90436ZM2.0091 8.08907L1.76309 8.04457L2.0091 8.08907ZM1.99241 8.18132L2.23842 8.22582L1.99241 8.18132ZM1.97572 8.27358L1.72972 8.22909L1.97572 8.27358ZM1.99971 8.46786L2.23193 8.37526L1.99971 8.46786ZM2.08106 8.67188L1.84884 8.76448L2.08106 8.67188ZM2.00797 8.7647L1.98783 9.01389L2.00797 8.7647ZM1.3854 8.75993L1.36518 8.51075L1.3854 8.75993ZM0.928262 8.30926L0.691841 8.22798L0.928262 8.30926ZM0.98999 8.12969L0.75357 8.04842L0.98999 8.12969ZM1.03891 7.9479L0.793589 7.89976L1.03891 7.9479ZM1.07502 7.76386L1.32034 7.812L1.07502 7.76386ZM1.1524 7.58703L0.947536 7.44375L1.1524 7.58703ZM1.21172 7.50221L1.41659 7.64549L1.21172 7.50221ZM1.27105 7.41739L1.06618 7.27411L1.27105 7.41739ZM1.32705 7.23683L1.0772 7.24548L1.32705 7.23683ZM1.32043 7.04534L1.57028 7.03669L1.32043 7.04534ZM1.28804 6.84936L1.04794 6.919L1.28804 6.84936ZM1.2299 6.64889L1.47001 6.57926L1.2299 6.64889ZM1.22093 6.457L0.976732 6.40346L1.22093 6.457ZM1.26112 6.27368L1.50532 6.32722L1.26112 6.27368ZM1.34188 6.00227L1.105 5.92233L1.34188 6.00227ZM1.37221 5.91239L1.60908 5.99232L1.37221 5.91239ZM1.4298 5.73211L1.19045 5.65991L1.4298 5.73211ZM1.48434 5.55129L1.72369 5.62348L1.48434 5.55129ZM1.56222 5.37454L1.34654 5.24811L1.56222 5.37454ZM1.72967 5.02308L1.48317 4.98141L1.72967 5.02308ZM1.7453 4.93064L1.4988 4.88897L1.7453 4.93064ZM1.76093 4.8382L2.00743 4.87988L1.76093 4.8382ZM1.70303 4.54261L1.93811 4.45753L1.70303 4.54261ZM1.66627 4.44103L1.43119 4.52611L1.66627 4.44103ZM1.68374 4.25375L1.47248 4.12007L1.68374 4.25375ZM1.7922 4.08234L2.00346 4.21602L1.7922 4.08234ZM1.87156 3.90585L2.1125 3.97252L1.87156 3.90585ZM1.9218 3.72428L1.68085 3.65761L1.9218 3.72428ZM1.94572 3.53812L1.69574 3.54125L1.94572 3.53812ZM1.94453 3.44275L2.19451 3.43962L1.94453 3.44275ZM1.94333 3.34737L1.69335 3.35051L1.94333 3.34737ZM1.97757 3.16302L1.74531 3.07053L1.97757 3.16302ZM2.04844 2.98505L2.2807 3.07753L2.04844 2.98505ZM2.04952 2.7949L2.28624 2.71451L2.04952 2.7949ZM1.98081 2.59259L1.74409 2.67299L1.98081 2.59259ZM2.01696 2.40856L1.82655 2.24656L2.01696 2.40856ZM2.15798 2.24283L2.34838 2.40483L2.15798 2.24283ZM2.21398 2.06226L1.96669 2.09899L2.21398 2.06226ZM2.18496 1.86687L2.43225 1.83015L2.18496 1.86687ZM2.11428 1.73405L2.24685 1.52209V1.52209L2.11428 1.73405ZM2.00195 1.66379L1.86938 1.87575V1.87575L2.00195 1.66379ZM1.88265 1.72055L2.08871 1.86211L1.88265 1.72055ZM1.75639 1.90433L1.55033 1.76277L1.75639 1.90433ZM1.58903 1.99008L1.60374 1.74052L1.58903 1.99008ZM1.38056 1.97779L1.36585 2.22736L1.38056 1.97779ZM1.20423 2.04215L1.02944 1.86341L1.20423 2.04215ZM1.13214 2.11266L1.30693 2.2914L1.13214 2.11266ZM1.06004 2.18316L1.23483 2.3619L1.06004 2.18316ZM0.892626 2.26879L0.853457 2.02187L0.892626 2.26879ZM0.701993 2.29903L0.741162 2.54594L0.701993 2.29903ZM0.510424 2.32097L0.528088 2.57034L0.510424 2.32097ZM0.414171 2.32779L0.396507 2.07841L0.414171 2.32779ZM0.317919 2.3346L0.300254 2.08523L0.317919 2.3346ZM0.262117 2.25346L0.0349858 2.14901L0.262117 2.25346ZM0.302568 2.16551L0.5297 2.26997L0.302568 2.16551ZM0.343019 2.07755L0.115888 1.97309L0.343019 2.07755ZM0.373548 1.89253L0.622252 1.86711L0.373548 1.89253ZM0.353703 1.6984L0.105 1.72383L0.353703 1.6984ZM0.424304 1.55477L0.299151 1.33836L0.424304 1.55477ZM0.585348 1.46164L0.7105 1.67806L0.585348 1.46164ZM0.731076 1.32782L0.931337 1.47748L0.731076 1.32782ZM0.861488 1.15331L0.661227 1.00366L0.861488 1.15331ZM1.01776 1.04087L1.08439 1.28183L1.01776 1.04087ZM1.10884 1.0157L1.04221 0.774734L1.10884 1.0157ZM1.19991 0.990516L1.26653 1.23148L1.19991 0.990516ZM1.37875 0.932236L1.46696 1.16615L1.37875 0.932236ZM1.55429 0.866036L1.46607 0.632117L1.55429 0.866036ZM1.72348 0.784601L1.8511 0.999578L1.72348 0.784601ZM1.88633 0.687933L2.01394 0.90291L1.88633 0.687933ZM2.05403 0.602911L2.15186 0.832973L2.05403 0.602911ZM2.14031 0.566223L2.04247 0.336161L2.14031 0.566223ZM2.22658 0.529534L2.12875 0.299472L2.22658 0.529534ZM2.42068 0.50786L2.3862 0.755471L2.42068 0.50786ZM2.52849 0.522873L2.49401 0.770484L2.52849 0.522873ZM2.63631 0.537886L2.67079 0.290275L2.63631 0.537886ZM2.82695 0.507931L2.94624 0.727638L2.82695 0.507931ZM2.90978 0.462963L2.7905 0.243256L2.90978 0.462963ZM2.99261 0.417995L3.11189 0.637703L2.99261 0.417995ZM3.16035 0.344813L3.23917 0.582063L3.16035 0.344813ZM3.33019 0.288387L3.25137 0.0511379L3.33019 0.288387ZM3.41742 0.256776L3.21039 0.116628L3.41742 0.256776ZM3.42202 0.24998L3.21499 0.109832L3.42202 0.24998ZM3.3788 0.429034L3.13624 0.368526L3.11348 0.459752L3.35605 0.52026L3.59862 0.580768L3.62137 0.489542L3.3788 0.429034ZM3.35605 0.52026L3.11348 0.459752C3.08797 0.562032 3.08923 0.665704 3.11278 0.767065L3.35629 0.710494L3.59981 0.653923C3.59269 0.623274 3.59379 0.600122 3.59862 0.580768L3.35605 0.52026ZM3.35629 0.710494L3.11278 0.767065L3.13578 0.866074L3.37929 0.809503L3.62281 0.752932L3.59981 0.653923L3.35629 0.710494ZM3.37929 0.809503L3.13578 0.866074L3.15878 0.965082L3.40229 0.908511L3.64581 0.85194L3.62281 0.752932L3.37929 0.809503ZM3.40229 0.908511L3.15878 0.965082C3.15864 0.964498 3.15812 0.961918 3.15811 0.957723C3.1581 0.953447 3.15862 0.948662 3.15981 0.943845C3.16235 0.933518 3.16615 0.929896 3.16341 0.933262L3.35732 1.09105L3.55123 1.24885C3.64196 1.13735 3.6798 0.998274 3.64581 0.85194L3.40229 0.908511ZM3.35732 1.09105L3.16341 0.933262L3.09543 1.0168L3.28934 1.17459L3.48326 1.33238L3.55123 1.24885L3.35732 1.09105ZM3.28934 1.17459L3.09543 1.0168L3.02746 1.10033L3.22137 1.25812L3.41528 1.41592L3.48326 1.33238L3.28934 1.17459ZM3.22137 1.25812L3.02746 1.10033C2.92608 1.22491 2.9009 1.37954 2.95628 1.52965L3.19083 1.44312L3.42537 1.35659C3.42532 1.35645 3.42643 1.35942 3.42708 1.36513C3.42776 1.37102 3.42779 1.37851 3.42641 1.38686C3.42341 1.40502 3.41596 1.41509 3.41528 1.41592L3.22137 1.25812ZM3.19083 1.44312L2.95628 1.52965L2.99371 1.63112L3.22826 1.54459L3.46281 1.45805L3.42537 1.35659L3.19083 1.44312ZM3.22826 1.54459L2.99371 1.63112L3.03115 1.73258L3.26569 1.64605L3.50024 1.55952L3.46281 1.45805L3.22826 1.54459ZM3.26569 1.64605L3.03115 1.73258C3.02969 1.72864 3.02518 1.71211 3.03015 1.68932C3.03497 1.66725 3.0449 1.65675 3.04401 1.65768L3.22567 1.82943L3.40734 2.00119C3.45809 1.94751 3.5005 1.87914 3.51866 1.79593C3.53697 1.71202 3.52665 1.6311 3.50024 1.55952L3.26569 1.64605ZM3.22567 1.82943L3.04401 1.65768L2.96656 1.7396L3.14822 1.91136L3.32988 2.08311L3.40734 2.00119L3.22567 1.82943ZM3.14822 1.91136L2.96656 1.7396L2.8891 1.82153L3.07077 1.99328L3.25243 2.16503L3.32988 2.08311L3.14822 1.91136ZM3.07077 1.99328L2.8891 1.82153C2.80103 1.91468 2.74235 2.03506 2.74551 2.17625L2.99545 2.17066L3.24538 2.16508C3.24542 2.1666 3.24529 2.16873 3.24483 2.17114C3.24436 2.17354 3.24373 2.17533 3.24332 2.1763C3.24247 2.17832 3.24363 2.17434 3.25243 2.16503L3.07077 1.99328ZM2.99545 2.17066L2.74551 2.17625L2.74764 2.2717L2.99758 2.26612L3.24752 2.26054L3.24538 2.16508L2.99545 2.17066ZM2.99758 2.26612L2.74764 2.2717L2.74977 2.36716L2.99971 2.36158L3.24965 2.356L3.24752 2.26054L2.99758 2.26612ZM2.99971 2.36158L2.74977 2.36716C2.75067 2.40731 2.746 2.44565 2.73595 2.48294L2.97735 2.54797L3.21874 2.613C3.24136 2.52905 3.2516 2.44313 3.24965 2.356L2.99971 2.36158ZM2.97735 2.54797L2.73595 2.48294L2.71146 2.57387L2.95285 2.6389L3.19424 2.70393L3.21874 2.613L2.97735 2.54797ZM2.95285 2.6389L2.71146 2.57387L2.68696 2.6648L2.92835 2.72983L3.16975 2.79486L3.19424 2.70393L2.95285 2.6389ZM2.92835 2.72983L2.68696 2.6648C2.65627 2.77874 2.66442 2.89302 2.70029 3.00062L2.93746 2.92157L3.17463 2.84252C3.16569 2.8157 3.16778 2.80216 3.16975 2.79486L2.92835 2.72983ZM2.93746 2.92157L2.70029 3.00062L2.73389 3.10143L2.97106 3.02238L3.20823 2.94333L3.17463 2.84252L2.93746 2.92157ZM2.97106 3.02238L2.73389 3.10143L2.76749 3.20225L3.00466 3.12319L3.24184 3.04414L3.20823 2.94333L2.97106 3.02238ZM3.00466 3.12319L2.76749 3.20225C2.76803 3.20386 2.76553 3.19673 2.76733 3.18428C2.76816 3.17854 2.76966 3.17348 2.77132 3.16949C2.77294 3.16559 2.77429 3.1637 2.77422 3.1638L2.97786 3.30883L3.18149 3.45385C3.2692 3.3307 3.28888 3.18528 3.24184 3.04414L3.00466 3.12319ZM2.97786 3.30883L2.77422 3.1638L2.71381 3.24862L2.91745 3.39365L3.12108 3.53867L3.18149 3.45385L2.97786 3.30883ZM2.91745 3.39365L2.71381 3.24862L2.6534 3.33344L2.85704 3.47847L3.06067 3.6235L3.12108 3.53867L2.91745 3.39365ZM2.85704 3.47847L2.6534 3.33344C2.59599 3.41405 2.55394 3.50303 2.53209 3.59979L2.77595 3.65487L3.0198 3.70995C3.02553 3.68461 3.03754 3.65598 3.06067 3.6235L2.85704 3.47847ZM2.77595 3.65487L2.53209 3.59979L2.51141 3.69137L2.75526 3.74645L2.99912 3.80153L3.0198 3.70995L2.77595 3.65487ZM2.75526 3.74645L2.51141 3.69137L2.49072 3.78295L2.73458 3.83803L2.97844 3.8931L2.99912 3.80153L2.75526 3.74645ZM2.73458 3.83803L2.49072 3.78295C2.46616 3.89169 2.4741 4.0004 2.50626 4.10407L2.74504 4.03L2.98381 3.95593C2.97445 3.92574 2.97542 3.90647 2.97844 3.8931L2.73458 3.83803ZM2.74504 4.03L2.50626 4.10407L2.53741 4.20446L2.77618 4.13039L3.01496 4.05632L2.98381 3.95593L2.74504 4.03ZM2.77618 4.13039L2.53741 4.20446L2.56855 4.30485L2.80732 4.23078L3.0461 4.15671L3.01496 4.05632L2.77618 4.13039ZM2.80732 4.23078L2.56855 4.30485C2.56806 4.30327 2.56551 4.29274 2.56856 4.27763C2.57154 4.26279 2.57749 4.25556 2.57663 4.2566L2.77031 4.41468L2.96399 4.57276C3.0608 4.45415 3.09245 4.30612 3.0461 4.15671L2.80732 4.23078ZM2.77031 4.41468L2.57663 4.2566L2.50848 4.3401L2.70215 4.49819L2.89583 4.65627L2.96399 4.57276L2.77031 4.41468ZM2.70215 4.49819L2.50848 4.3401L2.44032 4.42361L2.63399 4.58169L2.82767 4.73977L2.89583 4.65627L2.70215 4.49819ZM2.63399 4.58169L2.44032 4.42361C2.3651 4.51576 2.31685 4.62684 2.31318 4.75251L2.56307 4.75982L2.81296 4.76713C2.81298 4.76663 2.81201 4.75896 2.82767 4.73977L2.63399 4.58169ZM2.56307 4.75982L2.31318 4.75251L2.31041 4.84713L2.5603 4.85444L2.81019 4.86176L2.81296 4.76713L2.56307 4.75982ZM2.5603 4.85444L2.31041 4.84713L2.30764 4.94176L2.55753 4.94907L2.80742 4.95638L2.81019 4.86176L2.5603 4.85444ZM2.55753 4.94907L2.30764 4.94176C2.30496 5.03319 2.31772 5.12395 2.34345 5.21306L2.58364 5.1437L2.82383 5.07435C2.81105 5.03011 2.80641 4.99112 2.80742 4.95638L2.55753 4.94907ZM2.58364 5.1437L2.34345 5.21306L2.37233 5.31307L2.61252 5.24371L2.8527 5.17436L2.82383 5.07435L2.58364 5.1437ZM2.61252 5.24371L2.37233 5.31307L2.40121 5.41307L2.64139 5.34372L2.88158 5.27436L2.8527 5.17436L2.61252 5.24371ZM2.64139 5.34372L2.40121 5.41307C2.4017 5.41477 2.40146 5.41452 2.4013 5.41256C2.40114 5.41052 2.40114 5.40748 2.40167 5.40383C2.40221 5.40017 2.40313 5.39699 2.40407 5.39459C2.40498 5.39225 2.4056 5.39144 2.40511 5.3922L2.61417 5.52928L2.82324 5.66637C2.90142 5.54713 2.92066 5.40969 2.88158 5.27436L2.64139 5.34372ZM2.61417 5.52928L2.40511 5.3922L2.34901 5.47775L2.55807 5.61484L2.76714 5.75192L2.82324 5.66637L2.61417 5.52928ZM2.55807 5.61484L2.34901 5.47775L2.29291 5.56331L2.50198 5.70039L2.71104 5.83748L2.76714 5.75192L2.55807 5.61484ZM2.50198 5.70039L2.29291 5.56331C2.24885 5.6305 2.21048 5.69968 2.17816 5.77085L2.40579 5.87422L2.63341 5.9776C2.65454 5.93107 2.6803 5.88436 2.71104 5.83748L2.50198 5.70039ZM2.40579 5.87422L2.17816 5.77085L2.13807 5.85913L2.3657 5.9625L2.59332 6.06588L2.63341 5.9776L2.40579 5.87422ZM2.3657 5.9625L2.13807 5.85913L2.09798 5.94741L2.32561 6.05078L2.55323 6.15415L2.59332 6.06588L2.3657 5.9625ZM2.32561 6.05078L2.09798 5.94741C2.06004 6.03094 2.03633 6.11877 2.02799 6.20994L2.27696 6.2327L2.52592 6.25546C2.529 6.22177 2.53772 6.18832 2.55323 6.15415L2.32561 6.05078ZM2.27696 6.2327L2.02799 6.20994L2.01943 6.30358L2.2684 6.32634L2.51736 6.3491L2.52592 6.25546L2.27696 6.2327ZM2.2684 6.32634L2.01943 6.30358L2.01087 6.39722L2.25984 6.41998L2.5088 6.44274L2.51736 6.3491L2.2684 6.32634ZM2.25984 6.41998L2.01087 6.39722C2.00129 6.50204 2.01838 6.6046 2.05446 6.70197L2.28888 6.61511L2.52331 6.52825C2.50925 6.4903 2.50697 6.46277 2.5088 6.44274L2.25984 6.41998ZM2.28888 6.61511L2.05446 6.70197L2.09206 6.80346L2.32649 6.7166L2.56091 6.62974L2.52331 6.52825L2.28888 6.61511ZM2.32649 6.7166L2.09206 6.80346L2.12967 6.90496L2.36409 6.8181L2.59852 6.73124L2.56091 6.62974L2.32649 6.7166ZM2.36409 6.8181L2.12967 6.90496C2.12892 6.90294 2.12471 6.88904 2.12854 6.86869C2.1303 6.85935 2.13324 6.85158 2.13619 6.84584C2.13903 6.84029 2.14128 6.83775 2.14108 6.83798L2.32942 7.00239L2.51775 7.1668C2.56606 7.11146 2.60457 7.0427 2.61992 6.96115C2.63531 6.87936 2.62434 6.80092 2.59852 6.73124L2.36409 6.8181ZM2.32942 7.00239L2.14108 6.83798L2.0688 6.92078L2.25713 7.08519L2.44547 7.2496L2.51775 7.1668L2.32942 7.00239ZM2.25713 7.08519L2.0688 6.92078L1.99651 7.00359L2.18485 7.168L2.37318 7.33241L2.44547 7.2496L2.25713 7.08519ZM2.18485 7.168L1.99651 7.00359C1.91847 7.09299 1.86518 7.20239 1.85697 7.32863L2.10645 7.34485L2.35592 7.36108C2.356 7.35987 2.3562 7.35821 2.35766 7.35493C2.35928 7.35126 2.36337 7.34364 2.37318 7.33241L2.18485 7.168ZM2.10645 7.34485L1.85697 7.32863L1.85086 7.42268L2.10033 7.43891L2.3498 7.45513L2.35592 7.36108L2.10645 7.34485ZM2.10033 7.43891L1.85086 7.42268L1.84474 7.51674L2.09421 7.53296L2.34369 7.54919L2.3498 7.45513L2.10033 7.43891ZM2.09421 7.53296L1.84474 7.51674C1.84121 7.57101 1.83496 7.62472 1.82599 7.67793L2.07252 7.71947L2.31904 7.76101C2.33085 7.69095 2.33906 7.62033 2.34369 7.54919L2.09421 7.53296ZM2.07252 7.71947L1.82599 7.67793L1.81042 7.77038L2.05694 7.81191L2.30347 7.85345L2.31904 7.76101L2.07252 7.71947ZM2.05694 7.81191L1.81042 7.77038L1.79484 7.86282L2.04136 7.90436L2.28789 7.9459L2.30347 7.85345L2.05694 7.81191ZM2.04136 7.90436L1.79484 7.86282C1.78462 7.92347 1.77404 7.98405 1.76309 8.04457L2.0091 8.08907L2.25511 8.13356C2.26641 8.07107 2.27734 8.00852 2.28789 7.9459L2.04136 7.90436ZM2.0091 8.08907L1.76309 8.04457L1.7464 8.13683L1.99241 8.18132L2.23842 8.22582L2.25511 8.13356L2.0091 8.08907ZM1.99241 8.18132L1.7464 8.13683L1.72972 8.22909L1.97572 8.27358L2.22173 8.31808L2.23842 8.22582L1.99241 8.18132ZM1.97572 8.27358L1.72972 8.22909C1.70891 8.34409 1.72605 8.45651 1.76749 8.56045L1.99971 8.46786L2.23193 8.37526C2.21914 8.34318 2.22028 8.32609 2.22173 8.31808L1.97572 8.27358ZM1.99971 8.46786L1.76749 8.56045L1.80817 8.66246L2.04039 8.56987L2.27261 8.47728L2.23193 8.37526L1.99971 8.46786ZM2.04039 8.56987L1.80817 8.66246L1.84884 8.76448L2.08106 8.67188L2.31328 8.57929L2.27261 8.47728L2.04039 8.56987ZM2.08106 8.67188L1.84884 8.76448C1.84874 8.76422 1.84737 8.76079 1.84586 8.75457C1.84438 8.74847 1.84225 8.73757 1.84184 8.72289C1.84099 8.6922 1.8481 8.64046 1.88672 8.59142C1.9244 8.54358 1.97051 8.52577 1.99512 8.51968C2.01807 8.514 2.03168 8.5158 2.02811 8.51552L2.00797 8.7647L1.98783 9.01389C2.03585 9.01777 2.18243 9.02407 2.27953 8.90077C2.38154 8.77125 2.33193 8.62605 2.31328 8.57929L2.08106 8.67188ZM2.00797 8.7647L2.02811 8.51552L1.91433 8.50632L1.89419 8.75551L1.87405 9.0047L1.98783 9.01389L2.00797 8.7647ZM1.89419 8.75551L1.91433 8.50632L1.80056 8.49713L1.78042 8.74631L1.76028 8.9955L1.87405 9.0047L1.89419 8.75551ZM1.78042 8.74631L1.80056 8.49713C1.71401 8.49013 1.63109 8.48918 1.55268 8.49554L1.5729 8.74472L1.59311 8.9939C1.6397 8.99012 1.69513 8.99023 1.76028 8.9955L1.78042 8.74631ZM1.5729 8.74472L1.55268 8.49554L1.45893 8.50314L1.47915 8.75233L1.49936 9.00151L1.59311 8.9939L1.5729 8.74472ZM1.47915 8.75233L1.45893 8.50314L1.36518 8.51075L1.3854 8.75993L1.40561 9.00911L1.49936 9.00151L1.47915 8.75233ZM1.3854 8.75993L1.36518 8.51075C1.30751 8.51543 1.24724 8.51863 1.18433 8.5203L1.19097 8.77021L1.19761 9.02012C1.26894 9.01822 1.33829 9.01457 1.40561 9.00911L1.3854 8.75993ZM1.19097 8.77021L1.18433 8.5203L1.08366 8.52297L1.09029 8.77288L1.09693 9.02279L1.19761 9.02012L1.19097 8.77021ZM1.09029 8.77288L1.08366 8.52297L0.982984 8.52564L0.989619 8.77555L0.996254 9.02547L1.09693 9.02279L1.09029 8.77288ZM0.989619 8.77555L0.982984 8.52564C0.983106 8.52564 1.03462 8.5238 1.08535 8.57122C1.1393 8.62164 1.14121 8.67923 1.14099 8.689L0.891057 8.68343L0.641119 8.67786C0.639492 8.75083 0.657124 8.85536 0.74393 8.9365C0.82751 9.01462 0.929015 9.02725 0.996254 9.02547L0.989619 8.77555ZM0.891057 8.68343L1.14099 8.689L1.14311 8.59421L0.89317 8.58863L0.643232 8.58306L0.641119 8.67786L0.891057 8.68343ZM0.89317 8.58863L1.14311 8.59421L1.14522 8.49941L0.895284 8.49384L0.645346 8.48826L0.643232 8.58306L0.89317 8.58863ZM0.895284 8.49384L1.14522 8.49941C1.14606 8.46202 1.15248 8.42603 1.16468 8.39053L0.928262 8.30926L0.691841 8.22798C0.662893 8.31219 0.647331 8.39925 0.645346 8.48826L0.895284 8.49384ZM0.928262 8.30926L1.16468 8.39053L1.19555 8.30075L0.959126 8.21948L0.722706 8.1382L0.691841 8.22798L0.928262 8.30926ZM0.959126 8.21948L1.19555 8.30075L1.22641 8.21097L0.98999 8.12969L0.75357 8.04842L0.722706 8.1382L0.959126 8.21948ZM0.98999 8.12969L1.22641 8.21097C1.25066 8.14042 1.26996 8.06875 1.28423 7.99603L1.03891 7.9479L0.793589 7.89976C0.783784 7.94972 0.77047 7.99926 0.75357 8.04842L0.98999 8.12969ZM1.03891 7.9479L1.28423 7.99603L1.30229 7.90402L1.05697 7.85588L0.811646 7.80774L0.793589 7.89976L1.03891 7.9479ZM1.05697 7.85588L1.30229 7.90402L1.32034 7.812L1.07502 7.76386L0.829702 7.71572L0.811646 7.80774L1.05697 7.85588ZM1.07502 7.76386L1.32034 7.812C1.32501 7.78825 1.3356 7.76129 1.35727 7.73031L1.1524 7.58703L0.947536 7.44375C0.890107 7.52586 0.849116 7.61679 0.829702 7.71572L1.07502 7.76386ZM1.1524 7.58703L1.35727 7.73031L1.41659 7.64549L1.21172 7.50221L1.00686 7.35893L0.947536 7.44375L1.1524 7.58703ZM1.21172 7.50221L1.41659 7.64549L1.47591 7.56067L1.27105 7.41739L1.06618 7.27411L1.00686 7.35893L1.21172 7.50221ZM1.27105 7.41739L1.47591 7.56067C1.54388 7.46349 1.58114 7.35064 1.57691 7.22818L1.32705 7.23683L1.0772 7.24548C1.07738 7.25068 1.07731 7.2582 1.06618 7.27411L1.27105 7.41739ZM1.32705 7.23683L1.57691 7.22818L1.57359 7.13244L1.32374 7.14108L1.07389 7.14973L1.0772 7.24548L1.32705 7.23683ZM1.32374 7.14108L1.57359 7.13244L1.57028 7.03669L1.32043 7.04534L1.07058 7.05399L1.07389 7.14973L1.32374 7.14108ZM1.32043 7.04534L1.57028 7.03669C1.56729 6.95046 1.55278 6.86465 1.52815 6.77973L1.28804 6.84936L1.04794 6.919C1.06207 6.96773 1.06914 7.01256 1.07058 7.05399L1.32043 7.04534ZM1.28804 6.84936L1.52815 6.77973L1.49908 6.67949L1.25897 6.74913L1.01887 6.81876L1.04794 6.919L1.28804 6.84936ZM1.25897 6.74913L1.49908 6.67949L1.47001 6.57926L1.2299 6.64889L0.989798 6.71853L1.01887 6.81876L1.25897 6.74913ZM1.2299 6.64889L1.47001 6.57926C1.46092 6.54793 1.46164 6.52647 1.46513 6.51054L1.22093 6.457L0.976732 6.40346C0.95343 6.50974 0.960125 6.61621 0.989798 6.71853L1.2299 6.64889ZM1.22093 6.457L1.46513 6.51054L1.48523 6.41888L1.24103 6.36534L0.996828 6.3118L0.976732 6.40346L1.22093 6.457ZM1.24103 6.36534L1.48523 6.41888L1.50532 6.32722L1.26112 6.27368L1.01692 6.22014L0.996828 6.3118L1.24103 6.36534ZM1.26112 6.27368L1.50532 6.32722C1.51674 6.27513 1.5311 6.22343 1.54843 6.17208L1.31155 6.09214L1.07467 6.01221C1.05156 6.08069 1.0323 6.15001 1.01692 6.22014L1.26112 6.27368ZM1.31155 6.09214L1.54843 6.17208L1.57875 6.0822L1.34188 6.00227L1.105 5.92233L1.07467 6.01221L1.31155 6.09214ZM1.34188 6.00227L1.57875 6.0822L1.60908 5.99232L1.37221 5.91239L1.13533 5.83246L1.105 5.92233L1.34188 6.00227ZM1.37221 5.91239L1.60908 5.99232C1.63016 5.92985 1.65019 5.86718 1.66915 5.8043L1.4298 5.73211L1.19045 5.65991C1.17306 5.71758 1.15469 5.7751 1.13533 5.83246L1.37221 5.91239ZM1.4298 5.73211L1.66915 5.8043L1.69642 5.71389L1.45707 5.6417L1.21772 5.56951L1.19045 5.65991L1.4298 5.73211ZM1.45707 5.6417L1.69642 5.71389L1.72369 5.62348L1.48434 5.55129L1.24499 5.4791L1.21772 5.56951L1.45707 5.6417ZM1.48434 5.55129L1.72369 5.62348C1.73582 5.58325 1.75357 5.54246 1.77789 5.50096L1.56222 5.37454L1.34654 5.24811C1.30339 5.32173 1.26921 5.39878 1.24499 5.4791L1.48434 5.55129ZM1.56222 5.37454L1.77789 5.50096L1.8285 5.41463L1.61283 5.2882L1.39715 5.16178L1.34654 5.24811L1.56222 5.37454ZM1.61283 5.2882L1.8285 5.41463L1.87911 5.32829L1.66344 5.20186L1.44776 5.07544L1.39715 5.16178L1.61283 5.2882ZM1.66344 5.20186L1.87911 5.32829C1.92714 5.24636 1.96037 5.15824 1.97618 5.06476L1.72967 5.02308L1.48317 4.98141C1.47814 5.01119 1.46721 5.04225 1.44776 5.07544L1.66344 5.20186ZM1.72967 5.02308L1.97618 5.06476L1.9918 4.97232L1.7453 4.93064L1.4988 4.88897L1.48317 4.98141L1.72967 5.02308ZM1.7453 4.93064L1.9918 4.97232L2.00743 4.87988L1.76093 4.8382L1.51443 4.79653L1.4988 4.88897L1.7453 4.93064ZM1.76093 4.8382L2.00743 4.87988C2.02607 4.76962 2.0118 4.66114 1.97487 4.55911L1.73979 4.64419L1.50471 4.72927C1.5168 4.76268 1.51662 4.78354 1.51443 4.79653L1.76093 4.8382ZM1.73979 4.64419L1.97487 4.55911L1.93811 4.45753L1.70303 4.54261L1.46795 4.62769L1.50471 4.72927L1.73979 4.64419ZM1.70303 4.54261L1.93811 4.45753L1.90134 4.35596L1.66627 4.44103L1.43119 4.52611L1.46795 4.62769L1.70303 4.54261ZM1.66627 4.44103L1.90134 4.35596C1.89977 4.35159 1.90216 4.3561 1.90117 4.36664C1.90071 4.37158 1.89963 4.37631 1.89819 4.38041C1.89677 4.38445 1.89539 4.38681 1.89499 4.38743L1.68374 4.25375L1.47248 4.12007C1.39198 4.24729 1.38236 4.39119 1.43119 4.52611L1.66627 4.44103ZM1.68374 4.25375L1.89499 4.38743L1.94923 4.30172L1.73797 4.16804L1.52671 4.03437L1.47248 4.12007L1.68374 4.25375ZM1.73797 4.16804L1.94923 4.30172L2.00346 4.21602L1.7922 4.08234L1.58095 3.94866L1.52671 4.03437L1.73797 4.16804ZM1.7922 4.08234L2.00346 4.21602C2.05175 4.13971 2.08872 4.05846 2.1125 3.97252L1.87156 3.90585L1.63061 3.83918C1.6209 3.87428 1.60497 3.91069 1.58095 3.94866L1.7922 4.08234ZM1.87156 3.90585L2.1125 3.97252L2.13762 3.88174L1.89668 3.81506L1.65573 3.74839L1.63061 3.83918L1.87156 3.90585ZM1.89668 3.81506L2.13762 3.88174L2.16274 3.79095L1.9218 3.72428L1.68085 3.65761L1.65573 3.74839L1.89668 3.81506ZM1.9218 3.72428L2.16274 3.79095C2.18586 3.70742 2.19679 3.62185 2.1957 3.53499L1.94572 3.53812L1.69574 3.54125C1.69625 3.58156 1.69123 3.6201 1.68085 3.65761L1.9218 3.72428ZM1.94572 3.53812L2.1957 3.53499L2.19451 3.43962L1.94453 3.44275L1.69455 3.44588L1.69574 3.54125L1.94572 3.53812ZM1.94453 3.44275L2.19451 3.43962L2.19331 3.34424L1.94333 3.34737L1.69335 3.35051L1.69455 3.44588L1.94453 3.44275ZM1.94333 3.34737L2.19331 3.34424C2.19293 3.31353 2.19827 3.28455 2.20983 3.2555L1.97757 3.16302L1.74531 3.07053C1.70963 3.16013 1.69214 3.25406 1.69335 3.35051L1.94333 3.34737ZM1.97757 3.16302L2.20983 3.2555L2.24527 3.16652L2.01301 3.07403L1.78074 2.98154L1.74531 3.07053L1.97757 3.16302ZM2.01301 3.07403L2.24527 3.16652L2.2807 3.07753L2.04844 2.98505L1.81618 2.89256L1.78074 2.98154L2.01301 3.07403ZM2.04844 2.98505L2.2807 3.07753C2.3289 2.95649 2.32591 2.83132 2.28624 2.71451L2.04952 2.7949L1.8128 2.8753C1.8164 2.8859 1.81644 2.89094 1.81643 2.8916C1.81643 2.89204 1.8164 2.89205 1.81644 2.89184C1.81648 2.89163 1.81647 2.89182 1.81618 2.89256L2.04844 2.98505ZM2.04952 2.7949L2.28624 2.71451L2.25188 2.61335L2.01516 2.69375L1.77844 2.77414L1.8128 2.8753L2.04952 2.7949ZM2.01516 2.69375L2.25188 2.61335L2.21753 2.51219L1.98081 2.59259L1.74409 2.67299L1.77844 2.77414L2.01516 2.69375ZM1.98081 2.59259L2.21753 2.51219C2.21814 2.51399 2.22149 2.5263 2.21798 2.5442C2.21451 2.56185 2.20712 2.57086 2.20736 2.57057L2.01696 2.40856L1.82655 2.24656C1.72382 2.3673 1.69225 2.52035 1.74409 2.67299L1.98081 2.59259ZM2.01696 2.40856L2.20736 2.57057L2.27787 2.4877L2.08747 2.3257L1.89706 2.16369L1.82655 2.24656L2.01696 2.40856ZM2.08747 2.3257L2.27787 2.4877L2.34838 2.40483L2.15798 2.24283L1.96757 2.08082L1.89706 2.16369L2.08747 2.3257ZM2.15798 2.24283L2.34838 2.40483C2.4368 2.30092 2.48268 2.16977 2.46126 2.02554L2.21398 2.06226L1.96669 2.09899C1.96655 2.09806 1.96631 2.09571 1.96656 2.09229C1.96681 2.08883 1.96747 2.08535 1.96845 2.0822C1.97053 2.07549 1.97245 2.07508 1.96757 2.08082L2.15798 2.24283ZM2.21398 2.06226L2.46126 2.02554L2.44675 1.92784L2.19947 1.96457L1.95218 2.00129L1.96669 2.09899L2.21398 2.06226ZM2.19947 1.96457L2.44675 1.92784L2.43225 1.83015L2.18496 1.86687L1.93767 1.9036L1.95218 2.00129L2.19947 1.96457ZM2.18496 1.86687L2.43225 1.83015C2.41718 1.72874 2.37174 1.60021 2.24685 1.52209L2.11428 1.73405L1.98171 1.94601C1.95847 1.93147 1.9453 1.91347 1.93933 1.90225C1.93425 1.89271 1.93579 1.89092 1.93767 1.9036L2.18496 1.86687ZM2.11428 1.73405L2.24685 1.52209L2.19068 1.48696L2.05811 1.69892L1.92555 1.91088L1.98171 1.94601L2.11428 1.73405ZM2.05811 1.69892L2.19068 1.48696L2.13451 1.45183L2.00195 1.66379L1.86938 1.87575L1.92555 1.91088L2.05811 1.69892ZM2.00195 1.66379L2.13451 1.45183C2.04366 1.39501 1.93388 1.38839 1.83663 1.43467C1.75839 1.47189 1.70743 1.5341 1.67659 1.57899L1.88265 1.72055L2.08871 1.86211C2.09996 1.84574 2.08992 1.86786 2.05145 1.88616C2.02873 1.89697 1.99677 1.90595 1.95888 1.90374C1.92103 1.90153 1.89047 1.88894 1.86938 1.87575L2.00195 1.66379ZM1.88265 1.72055L1.67659 1.57899L1.61346 1.67088L1.81952 1.81244L2.02558 1.95401L2.08871 1.86211L1.88265 1.72055ZM1.81952 1.81244L1.61346 1.67088L1.55033 1.76277L1.75639 1.90433L1.96245 2.0459L2.02558 1.95401L1.81952 1.81244ZM1.75639 1.90433L1.55033 1.76277C1.54842 1.76555 1.55366 1.75707 1.56899 1.74922C1.58508 1.74097 1.59898 1.74023 1.60374 1.74052L1.58903 1.99008L1.57431 2.23965C1.73818 2.24931 1.87484 2.17341 1.96245 2.0459L1.75639 1.90433ZM1.58903 1.99008L1.60374 1.74052L1.49951 1.73437L1.48479 1.98394L1.47008 2.2335L1.57431 2.23965L1.58903 1.99008ZM1.48479 1.98394L1.49951 1.73437L1.39527 1.72823L1.38056 1.97779L1.36585 2.22736L1.47008 2.2335L1.48479 1.98394ZM1.38056 1.97779L1.39527 1.72823C1.25829 1.72015 1.12986 1.76521 1.02944 1.86341L1.20423 2.04215L1.37902 2.22089C1.37957 2.22036 1.37899 2.22102 1.37716 2.22219C1.37529 2.22339 1.37286 2.22464 1.37008 2.22566C1.36392 2.22791 1.36139 2.2271 1.36585 2.22736L1.38056 1.97779ZM1.20423 2.04215L1.02944 1.86341L0.957345 1.93392L1.13214 2.11266L1.30693 2.2914L1.37902 2.22089L1.20423 2.04215ZM1.13214 2.11266L0.957345 1.93392L0.885248 2.00442L1.06004 2.18316L1.23483 2.3619L1.30693 2.2914L1.13214 2.11266ZM1.06004 2.18316L0.885248 2.00442C0.872464 2.01692 0.863431 2.02029 0.853457 2.02187L0.892626 2.26879L0.931796 2.5157C1.04891 2.49712 1.15149 2.44341 1.23483 2.3619L1.06004 2.18316ZM0.892626 2.26879L0.853457 2.02187L0.75814 2.037L0.79731 2.28391L0.836479 2.53082L0.931796 2.5157L0.892626 2.26879ZM0.79731 2.28391L0.75814 2.037L0.662824 2.05212L0.701993 2.29903L0.741162 2.54594L0.836479 2.53082L0.79731 2.28391ZM0.701993 2.29903L0.662824 2.05212C0.606408 2.06107 0.549726 2.06756 0.49276 2.07159L0.510424 2.32097L0.528088 2.57034C0.599458 2.56529 0.67049 2.55715 0.741162 2.54594L0.701993 2.29903ZM0.510424 2.32097L0.49276 2.07159L0.396507 2.07841L0.414171 2.32779L0.431835 2.57716L0.528088 2.57034L0.510424 2.32097ZM0.414171 2.32779L0.396507 2.07841L0.300254 2.08523L0.317919 2.3346L0.335583 2.58398L0.431835 2.57716L0.414171 2.32779ZM0.317919 2.3346L0.300254 2.08523C0.301096 2.08517 0.305196 2.08491 0.311841 2.08533C0.318336 2.08574 0.329593 2.08695 0.343919 2.09084C0.372905 2.09872 0.4238 2.12077 0.46183 2.17606C0.499774 2.23124 0.502125 2.28639 0.499252 2.31582C0.497826 2.33042 0.495008 2.34123 0.493134 2.34734C0.491215 2.35359 0.489566 2.35723 0.489249 2.35792L0.262117 2.25346L0.0349858 2.14901C0.0185602 2.18472 -0.0425225 2.32507 0.0498534 2.45939C0.142655 2.59433 0.296208 2.58677 0.335583 2.58398L0.317919 2.3346ZM0.262117 2.25346L0.489249 2.35792L0.5297 2.26997L0.302568 2.16551L0.0754369 2.06105L0.0349858 2.14901L0.262117 2.25346ZM0.302568 2.16551L0.5297 2.26997L0.570151 2.18201L0.343019 2.07755L0.115888 1.97309L0.0754369 2.06105L0.302568 2.16551ZM0.343019 2.07755L0.570151 2.18201C0.615938 2.08245 0.633373 1.97589 0.622252 1.86711L0.373548 1.89253L0.124844 1.91795C0.126953 1.93859 0.124036 1.95538 0.115888 1.97309L0.343019 2.07755ZM0.373548 1.89253L0.622252 1.86711L0.61233 1.77004L0.363626 1.79547L0.114922 1.82089L0.124844 1.91795L0.373548 1.89253ZM0.363626 1.79547L0.61233 1.77004L0.602407 1.67298L0.353703 1.6984L0.105 1.72383L0.114922 1.82089L0.363626 1.79547ZM0.353703 1.6984L0.602407 1.67298C0.602817 1.67699 0.603781 1.69774 0.590753 1.72425C0.577313 1.75159 0.558327 1.76606 0.549456 1.77119L0.424304 1.55477L0.299151 1.33836C0.236598 1.37453 0.179005 1.42846 0.142032 1.50368C0.105471 1.57806 0.0979747 1.65511 0.105 1.72383L0.353703 1.6984ZM0.424304 1.55477L0.549456 1.77119L0.629978 1.72463L0.504826 1.50821L0.379674 1.29179L0.299151 1.33836L0.424304 1.55477ZM0.504826 1.50821L0.629978 1.72463L0.7105 1.67806L0.585348 1.46164L0.460196 1.24523L0.379674 1.29179L0.504826 1.50821ZM0.585348 1.46164L0.7105 1.67806C0.798053 1.62743 0.87103 1.55818 0.931337 1.47748L0.731076 1.32782L0.530816 1.17817C0.504182 1.21381 0.480007 1.23377 0.460196 1.24523L0.585348 1.46164ZM0.731076 1.32782L0.931337 1.47748L0.996543 1.39022L0.796282 1.24057L0.596022 1.09091L0.530816 1.17817L0.731076 1.32782ZM0.796282 1.24057L0.996543 1.39022L1.06175 1.30296L0.861488 1.15331L0.661227 1.00366L0.596022 1.09091L0.796282 1.24057ZM0.861488 1.15331L1.06175 1.30296C1.0702 1.29165 1.07634 1.28654 1.07916 1.28451C1.08167 1.28271 1.08307 1.2822 1.08439 1.28183L1.01776 1.04087L0.951144 0.799914C0.829038 0.833674 0.732584 0.90817 0.661227 1.00366L0.861488 1.15331ZM1.01776 1.04087L1.08439 1.28183L1.17546 1.25665L1.10884 1.0157L1.04221 0.774734L0.951144 0.799914L1.01776 1.04087ZM1.10884 1.0157L1.17546 1.25665L1.26653 1.23148L1.19991 0.990516L1.13329 0.749556L1.04221 0.774734L1.10884 1.0157ZM1.19991 0.990516L1.26653 1.23148C1.33449 1.21269 1.40131 1.19091 1.46696 1.16615L1.37875 0.932236L1.29053 0.698318C1.23916 0.717691 1.18675 0.734774 1.13329 0.749556L1.19991 0.990516ZM1.37875 0.932236L1.46696 1.16615L1.55473 1.13305L1.46652 0.899136L1.3783 0.665217L1.29053 0.698318L1.37875 0.932236ZM1.46652 0.899136L1.55473 1.13305L1.64251 1.09995L1.55429 0.866036L1.46607 0.632117L1.3783 0.665217L1.46652 0.899136ZM1.55429 0.866036L1.64251 1.09995C1.71481 1.07269 1.78438 1.03918 1.8511 0.999578L1.72348 0.784601L1.59587 0.569625C1.55402 0.594466 1.5108 0.615251 1.46607 0.632117L1.55429 0.866036ZM1.72348 0.784601L1.8511 0.999578L1.93252 0.951244L1.80491 0.736267L1.67729 0.521291L1.59587 0.569625L1.72348 0.784601ZM1.80491 0.736267L1.93252 0.951244L2.01394 0.90291L1.88633 0.687933L1.75872 0.472957L1.67729 0.521291L1.80491 0.736267ZM1.88633 0.687933L2.01394 0.90291C2.05874 0.876317 2.1047 0.853029 2.15186 0.832973L2.05403 0.602911L1.9562 0.372849C1.88833 0.401711 1.82248 0.435104 1.75872 0.472957L1.88633 0.687933ZM2.05403 0.602911L2.15186 0.832973L2.23814 0.796286L2.14031 0.566223L2.04247 0.336161L1.9562 0.372849L2.05403 0.602911ZM2.14031 0.566223L2.23814 0.796286L2.32441 0.759598L2.22658 0.529534L2.12875 0.299472L2.04247 0.336161L2.14031 0.566223ZM2.22658 0.529534L2.32441 0.759598C2.33391 0.755561 2.35186 0.75069 2.3862 0.755471L2.42068 0.50786L2.45515 0.260249C2.34573 0.245012 2.23429 0.254591 2.12875 0.299472L2.22658 0.529534ZM2.42068 0.50786L2.3862 0.755471L2.49401 0.770484L2.52849 0.522873L2.56297 0.275262L2.45515 0.260249L2.42068 0.50786ZM2.52849 0.522873L2.49401 0.770484L2.60183 0.785497L2.63631 0.537886L2.67079 0.290275L2.56297 0.275262L2.52849 0.522873ZM2.63631 0.537886L2.60183 0.785497C2.71811 0.801688 2.83703 0.78693 2.94624 0.727638L2.82695 0.507931L2.70767 0.288224C2.70645 0.288889 2.69827 0.294102 2.67079 0.290275L2.63631 0.537886ZM2.82695 0.507931L2.94624 0.727638L3.02906 0.682671L2.90978 0.462963L2.7905 0.243256L2.70767 0.288224L2.82695 0.507931ZM2.90978 0.462963L3.02906 0.682671L3.11189 0.637703L2.99261 0.417995L2.87332 0.198288L2.7905 0.243256L2.90978 0.462963ZM2.99261 0.417995L3.11189 0.637703C3.15485 0.614381 3.19726 0.595989 3.23917 0.582063L3.16035 0.344813L3.08153 0.107565C3.01022 0.131256 2.9408 0.161653 2.87332 0.198288L2.99261 0.417995ZM3.16035 0.344813L3.23917 0.582063L3.3241 0.553849L3.24527 0.316601L3.16645 0.0793514L3.08153 0.107565L3.16035 0.344813ZM3.24527 0.316601L3.3241 0.553849L3.40902 0.525637L3.33019 0.288387L3.25137 0.0511379L3.16645 0.0793514L3.24527 0.316601ZM3.33019 0.288387L3.40902 0.525637C3.43789 0.516045 3.46187 0.507859 3.47964 0.501417C3.48807 0.498363 3.49811 0.49462 3.50757 0.490663C3.51179 0.488899 3.52027 0.485285 3.52996 0.480295C3.53452 0.477947 3.54391 0.47298 3.55496 0.465659C3.55787 0.463728 3.59469 0.440862 3.62444 0.396924L3.41742 0.256776L3.21039 0.116628C3.21976 0.102785 3.22898 0.0921822 3.23595 0.0848303C3.24308 0.0773106 3.24962 0.0713606 3.25475 0.0669804C3.2647 0.0584707 3.27337 0.0524378 3.27866 0.0489359C3.28908 0.0420265 3.29763 0.0375366 3.30114 0.0357304C3.30872 0.0318251 3.31424 0.0295515 3.31463 0.0293884C3.31644 0.0286322 3.31538 0.0291243 3.30928 0.0313377C3.29798 0.0354328 3.27912 0.0419207 3.25137 0.0511379L3.33019 0.288387ZM3.41742 0.256776L3.62444 0.396924L3.62674 0.393526L3.41972 0.253378L3.21269 0.11323L3.21039 0.116628L3.41742 0.256776ZM3.41972 0.253378L3.62674 0.393526L3.62904 0.390128L3.42202 0.24998L3.21499 0.109832L3.21269 0.11323L3.41972 0.253378ZM3.42202 0.24998L3.62904 0.390128C3.62429 0.39715 3.61444 0.411006 3.59935 0.426182C3.58811 0.437483 3.55199 0.472466 3.4919 0.489928C3.41114 0.513399 3.3196 0.495318 3.25275 0.433702C3.20324 0.388075 3.18697 0.336239 3.18222 0.319962C3.17135 0.282714 3.1722 0.251716 3.17224 0.247948C3.17233 0.237743 3.17304 0.229767 3.17341 0.226062C3.17418 0.218274 3.17515 0.21244 3.17542 0.210814C3.17582 0.208426 3.17614 0.206751 3.17625 0.206189C3.17651 0.20489 3.17619 0.20655 3.17457 0.213529C3.17163 0.226163 3.16652 0.247109 3.15899 0.2773L3.40156 0.337808L3.64413 0.398315C3.65177 0.367689 3.65766 0.343589 3.66154 0.326947C3.66332 0.319288 3.66537 0.310253 3.66695 0.302201C3.66726 0.30061 3.66963 0.288941 3.67099 0.275156C3.67139 0.271099 3.67212 0.262834 3.67222 0.252401C3.67225 0.248405 3.6731 0.21724 3.6622 0.179888C3.65743 0.163558 3.64113 0.111685 3.5916 0.0660372C3.52473 0.00439835 3.43317 -0.0136881 3.35237 0.00979137C3.29225 0.0272627 3.25609 0.0622711 3.24481 0.0736122C3.22968 0.0888281 3.21979 0.102739 3.21499 0.109832L3.42202 0.24998ZM3.40156 0.337808L3.15899 0.2773L3.13624 0.368526L3.3788 0.429034L3.62137 0.489542L3.64413 0.398315L3.40156 0.337808Z" fill="black"/>
</svg>
