<svg width="17" height="16" viewBox="0 0 17 16" fill="none" xmlns="http://www.w3.org/2000/svg">
<circle cx="7.7783" cy="7.98517" r="7" transform="rotate(4.92624 7.7783 7.98517)" fill="black"/>
<path d="M6.562 14.3771C6.54934 14.3761 5.75106 14.2941 4.51382 14.1591C3.6896 14.0692 3.21901 13.6681 2.87624 13.3276C2.6031 13.0563 2.16517 12.5492 1.86631 12.1721C1.56745 11.7949 1.43028 11.554 1.28918 11.2196C1.14807 10.8852 1.00718 10.4647 0.910647 10.0851C0.814114 9.70547 0.766208 9.37948 0.753536 8.92845C0.740864 8.47741 0.764877 7.91121 0.791395 7.54023C0.817913 7.16925 0.846208 7.01064 1.04263 6.45101C1.23906 5.89139 1.60276 4.93554 1.87337 4.29319C2.14398 3.65084 2.31049 3.35096 2.55486 3.00379C3.08613 2.24901 3.58073 1.76042 3.81955 1.56907C3.97489 1.44461 4.37419 1.27795 5.08178 1.02974C5.4535 0.899348 5.87537 0.835757 6.26685 0.790066C6.65832 0.744376 7.01287 0.737893 7.54487 0.770198C8.07687 0.802504 8.77559 0.873795 9.3811 1.00009C9.9866 1.12639 10.4777 1.30554 10.8857 1.48606C11.2937 1.66658 11.6037 1.84305 11.9695 2.10142C12.3354 2.35978 12.7478 2.69471 13.0844 3.02586C13.421 3.35702 13.6694 3.67425 13.9535 4.11607C14.2376 4.55789 14.5499 5.11469 14.7836 5.61009C15.0173 6.10549 15.163 6.52262 15.2654 6.8958C15.3679 7.26899 15.4228 7.58558 15.4446 7.98312C15.4921 8.84833 15.4087 9.49408 15.331 9.81034C15.2554 10.1179 15.0665 10.4092 14.6205 10.9785C14.2851 11.4066 13.6708 12.0711 13.0854 12.6101C12.5001 13.149 11.9478 13.5304 11.4437 13.8609C10.5098 14.4731 9.95406 14.7678 9.76971 14.822C9.67994 14.8435 9.59782 14.8528 9.1527 14.8228C8.70757 14.7929 7.90191 14.7235 7.07184 14.6519" stroke="black" stroke-width="1.5" stroke-linecap="round"/>
<path d="M6.12485 6.64421C6.12505 6.64189 6.14499 6.43439 6.17965 6.1071C6.19569 5.95571 6.23509 5.88141 6.284 5.78856C6.33667 5.68859 6.43069 5.57814 6.56172 5.44509C6.717 5.2874 6.86239 5.20504 6.93058 5.17277C6.98248 5.1482 7.1038 5.13348 7.33197 5.12384C7.62994 5.11126 7.84973 5.17197 7.95385 5.21304C8.07429 5.26053 8.16391 5.35017 8.24985 5.44358C8.36818 5.57219 8.4685 5.76723 8.563 6.01295C8.61617 6.15119 8.64764 6.32833 8.67101 6.53813C8.69437 6.74794 8.70043 6.98795 8.69529 7.18047C8.68645 7.51132 8.64225 7.69128 8.58362 7.8089C8.54321 7.88996 8.46557 8.00612 8.32354 8.18236C8.1815 8.35859 7.97343 8.58928 7.76175 8.79394C7.55007 8.99859 7.34109 9.17023 7.16274 9.29759C6.85354 9.5184 6.63408 9.6072 6.53012 9.6451C6.48975 9.65982 6.47322 9.6617 6.92149 9.63562C7.36975 9.60954 8.28299 9.55449 8.89355 9.53703C9.5041 9.51956 9.78431 9.54134 10.073 9.56378" stroke="white" stroke-width="1.5" stroke-linecap="round"/>
</svg>
