<svg width="17" height="17" viewBox="0 0 17 17" fill="none" xmlns="http://www.w3.org/2000/svg">
<path d="M6.34092 14.4769C6.32837 14.4748 5.53818 14.3349 4.31406 14.1102C3.49859 13.9605 3.05846 13.5262 2.74141 13.1616C2.48876 12.8711 2.08893 12.3335 1.81834 11.9356C1.54774 11.5377 1.42849 11.2874 1.31212 10.9436C1.19575 10.5998 1.08586 10.1702 1.01724 9.78452C0.948619 9.39888 0.924587 9.07027 0.944805 8.61951C0.965022 8.16875 1.03022 7.6058 1.08369 7.23773C1.13716 6.86967 1.17694 6.71355 1.41361 6.16972C1.65028 5.62589 2.08264 4.69907 2.39933 4.07814C2.71601 3.45722 2.90392 3.17026 3.17293 2.84181C3.75778 2.12774 4.28666 1.67647 4.53877 1.50303C4.70277 1.39022 5.11315 1.25309 5.83694 1.05708C6.21717 0.954116 6.64256 0.921426 7.03632 0.904374C7.43008 0.887322 7.78416 0.906684 8.31239 0.977658C8.84063 1.04863 9.5323 1.17063 10.127 1.34071C10.7217 1.51078 11.1985 1.72523 11.5922 1.93499C11.986 2.14475 12.2823 2.34333 12.6283 2.62766C12.9744 2.91199 13.3613 3.27607 13.6729 3.63086C13.9845 3.98566 14.2091 4.32014 14.4602 4.78149C14.7114 5.24283 14.9824 5.8209 15.1794 6.33201C15.3764 6.84312 15.4912 7.26975 15.5662 7.64941C15.6412 8.02906 15.6729 8.34881 15.6657 8.74689C15.65 9.61325 15.5198 10.2512 15.4193 10.561C15.3215 10.8623 15.1118 11.139 14.6256 11.6742C14.2599 12.0768 13.5988 12.6948 12.9758 13.1897C12.3527 13.6846 11.774 14.0247 11.2473 14.3176C10.2713 14.8602 9.69551 15.1136 9.5077 15.1542C9.4166 15.1691 9.33403 15.1724 8.89226 15.1101C8.4505 15.0478 7.65204 14.9199 6.82939 14.788" stroke="black" stroke-width="1.5" stroke-linecap="round"/>
<circle cx="8.01946" cy="8.19052" r="7" transform="rotate(9.10372 8.01946 8.19052)" fill="black"/>
<path d="M7.09782 5.6811C7.09845 5.67715 7.10512 5.63553 7.12117 5.56508C7.13373 5.50995 7.18371 5.47706 7.24753 5.44889C7.32784 5.41344 7.49979 5.40855 7.75442 5.41693C8.22686 5.4325 8.3397 5.5538 8.49871 5.69904C8.56825 5.76256 8.64351 5.89575 8.74645 6.10807C8.86202 6.34643 8.88926 6.56218 8.89612 6.76111C8.90723 7.0837 8.85361 7.30921 8.8333 7.36552C8.81309 7.42158 8.72633 7.53573 8.58981 7.70264C8.46468 7.85563 8.28813 7.96541 8.14115 8.05849C7.98935 8.15461 7.82972 8.1773 7.81265 8.17726C7.70284 8.17698 8.19578 8.1256 8.52533 8.13685C8.94426 8.15116 9.22026 8.23105 9.32066 8.27592C9.59342 8.39782 9.71464 8.56818 9.79749 8.67597C9.8762 8.77835 9.89487 8.90143 9.89518 9.10319C9.89607 9.68575 9.78401 9.78543 9.73532 9.87321C9.6835 9.96662 9.42835 10.1209 9.12799 10.2702C9.06356 10.3023 8.99184 10.3119 8.78388 10.3415C8.57592 10.3711 8.2305 10.4124 7.92455 10.417C7.6186 10.4217 7.36259 10.3885 7.11462 10.3332C6.86665 10.278 6.63447 10.2017 6.49183 10.1509C6.30313 10.0769 6.20897 10.0169 6.13193 9.95444C6.10159 9.92814 6.08903 9.91279 6.07243 9.8941" stroke="white" stroke-width="1.5" stroke-linecap="round"/>
</svg>
