<?xml version="1.0" encoding="UTF-8"?>
<svg id="_레이어_1" data-name="레이어_1" xmlns="http://www.w3.org/2000/svg" version="1.1" viewBox="0 0 450 270">
  <!-- Generator: Adobe Illustrator 29.1.0, SVG Export Plug-In . SVG Version: 2.1.0 Build 142)  -->
  <defs>
    <style>
      .st0 {
        fill: #0e8579;
      }

      .st1 {
        stroke: #fff;
        stroke-width: 2.5px;
      }

      .st1, .st2, .st3 {
        fill-opacity: 0;
      }

      .st1, .st3 {
        stroke-linecap: round;
      }

      .st2 {
        stroke-miterlimit: 10.7;
        stroke-width: 3.2px;
      }

      .st2, .st3 {
        stroke: #000;
      }

      .st3 {
        stroke-linejoin: round;
        stroke-width: 3.5px;
      }

      .st4 {
        display: none;
      }
    </style>
  </defs>
  <g id="_x32_4211" class="st4">
    <path class="st0" d="M434.3,251.7c-.1.4-.4.8-.7,1.1-1.1,1.1-2.2.4-3.5.2-1.7-.2-4,0-5.7,0h-39.1c-1.5,0-3,0-4.5,0-3,.1-5.9.7-8.9.7-3.7,0-7.4,0-11.1,0-10,0-19.8.6-29.8.6h-20.3c-3.9,0-7.9.2-11.8,0-3.1-.2-6-1.5-9.1-1.1-2.3.3-4.3.9-6.7.8-2.3-.2-4.6-.5-6.9-.7-2.1-.2-4.1,0-6.1.1-4.5.2-8.9,0-13.4.3-6.7.3-13.4.6-20.1.9-6.8.3-13.8.4-20.6.2-2.2,0-4-.7-6-1.2-1.2-.3-2.4-.3-3.7-.3-7.7.1-15.5.5-23.3.5s-15.5.2-23.3.4c-3.9,0-7.8.2-11.7.2-1.8,0-3.8.3-5.6,0-3-.5-5.8,0-9,.1s-6.4,0-9.5,0c-2.6,0-5.1-.6-7.8-.7-2.8,0-5.6,0-8.5,0-7,0-13.9,0-20.8.5-6.9.5-14,.2-20.9-.4-4.9-.4-9.6,0-14.5.4-4,.3-8.3.4-12.3-.2-1.9-.3-3.9.3-5.9.3-3,0-6-.3-8.9,0-1.6.2-3.3.4-5,.2-2.1-.3-4.6-1.8-3.9-4.3.3-1.1.8-2,.9-3.2.2-1.7.3-3.3.1-5,0-1.1-.1-2,0-3.1.2-1.8-.3-3.4-.5-5.1-.2-2.5,0-5,0-7.6,0-4-.7-8-1.1-12-.8-6.9-.2-14.1-.3-21.1,0-7.2,0-14.5.7-21.7.9-9.5.1-19.4.1-28.9s.3-10.9.2-16.4c0-2.8-.1-5.6-.4-8.3-.1-1-.4-1.9-.5-2.9-.2-1.6.2-3.1.2-4.7,0-10.6,0-21.1,0-31.7s-.1-8.9.5-13.3c.2-1.5.3-2.9,0-4.3-.4-2.5-1-4.8-1-7.3-.1-5.9,1.1-11.8,1.1-17.8s-.1-9.9-.1-14.9c0-1.1-.3-3.1.6-4,.9-.9,2.9-.6,4-.7,1.9-.1,3.9-.2,5.8-.2,4.9,0,9.8,0,14.7,0h56c1.4,0,2.7,0,4.1.3.9.3,1.8.7,2.8.8,4.6.4,9.2-.8,13.8-.7,2.6,0,5.1-.1,7.7-.5,2.9-.4,5.8.5,8.8.5,6.4,0,12.6-.6,19-.6s14.5,1.3,21.7,1.3c2.8,0,5.7.2,8.5-.1,2-.2,4-.7,6-.5,1,0,2,0,3,0h22.9c2.5,0,5.2.3,7.7-.1,1.9-.3,3.3-.7,5.2-.5,2.8.2,5.6.4,8.4.6,1.3,0,2.7,0,4,.1,3.9,0,7.9.2,11.7-.2,3.5-.3,6.9-1.2,10.4-1.2,2.5,0,4.9,0,7.4,0,3.4,0,6.7.6,10.1.7,6.5.2,12.8-.7,19.3-.7,12,0,23.9,0,35.9,0,4,0,8.2-.7,12.2.2,3.3.7,6.1,1.7,9.6,1.7,7.6,0,15.1,0,22.7,0s5.8,0,8.7.7c2.7.7,5.6.1,8.2-.7,3.5-1.1,6.6-.4,10.3,0,4.2.3,9.1,1.1,13.2,0,2.4-.6,4.9-.4,7.4-.4h7.4c.4,0,.3,24.9.4,27.4,0,4-1.1,7.9-.5,11.9.6,4.1.4,8.1.6,12.2.5,8.3.5,16.6.5,24.9s.1,8.2,0,12.3c-.1,3.8-.7,7.4-.7,11.2,0,5.5-.7,10.9-.6,16.4,0,10.1,0,20.3,0,30.5v58.3c0,3.1-.3,6.3.1,9.3.3,1.7.6,3.3.5,5,0,1.7-.5,3.1-.4,4.8.1,2.5,0,4.9,0,7.4s.1,2.2-.2,3.3h0Z"/>
  </g>
  <g id="_x32_4214" class="st4">
    <path class="st1" d="M10.9,11.3"/>
    <path class="st3" d="M434.5,251.7c-.1.4-.4.8-.7,1.1-1.1,1.1-2.2.4-3.5.2-1.7-.2-4,0-5.7,0h-39.1c-1.5,0-3,0-4.5,0-3,.1-5.9.7-8.9.7-3.7,0-7.4,0-11.1,0-10,0-19.8.6-29.8.6h-20.3c-3.9,0-7.9.2-11.8,0-3.1-.2-6-1.5-9.1-1.1-2.3.3-4.3.9-6.7.8-2.3-.2-4.6-.5-6.9-.7-2.1-.2-4.1,0-6.1.1-4.5.2-8.9,0-13.4.3-6.7.3-13.4.6-20.1.9-6.8.3-13.8.4-20.6.2-2.2,0-4-.7-6-1.2-1.2-.3-2.4-.3-3.7-.3-7.7.1-15.5.5-23.3.5s-15.5.2-23.3.4c-3.9,0-7.8.2-11.7.2-1.8,0-3.8.3-5.6,0-3-.5-5.8,0-9,.1s-6.4,0-9.5,0c-2.6,0-5.1-.6-7.8-.7-2.8,0-5.6,0-8.5,0-7,0-13.9,0-20.8.5-6.9.5-14,.2-20.9-.4-4.9-.4-9.6,0-14.5.4-4,.3-8.3.4-12.3-.2-1.9-.3-3.9.3-5.9.3-3,0-6-.3-8.9,0-1.6.2-3.3.4-5,.2-2.1-.3-4.6-1.8-3.9-4.3.3-1.1.8-2,.9-3.2.2-1.7.3-3.3.1-5,0-1.1-.1-2,0-3.1.2-1.8-.3-3.4-.5-5.1-.2-2.5,0-5,0-7.6,0-4-.7-8-1.1-12-.8-6.9-.2-14.1-.3-21.1,0-7.2,0-14.5.7-21.7.9-9.5.1-19.4.1-28.9s.3-10.9.2-16.4c0-2.8-.1-5.6-.4-8.3-.1-1-.4-1.9-.5-2.9-.2-1.6.2-3.1.2-4.7,0-10.6,0-21.1,0-31.7s-.1-8.9.5-13.3c.2-1.5.3-2.9,0-4.3-.4-2.5-1-4.8-1-7.3-.1-5.9,1.1-11.8,1.1-17.8s-.1-9.9-.1-14.9c0-1.1-.3-3.1.6-4,.9-.9,2.9-.6,4-.7,1.9-.1,3.9-.2,5.8-.2,4.9,0,9.8,0,14.7,0h56c1.4,0,2.7,0,4.1.3.9.3,1.8.7,2.8.8,4.6.4,9.2-.8,13.8-.7,2.6,0,5.1-.1,7.7-.5,2.9-.4,5.8.5,8.8.5,6.4,0,12.6-.6,19-.6s14.5,1.3,21.7,1.3c2.8,0,5.7.2,8.5-.1,2-.2,4-.7,6-.5,1,0,2,0,3,0h22.9c2.5,0,5.2.3,7.7-.1,1.9-.3,3.3-.7,5.2-.5,2.8.2,5.6.4,8.4.6,1.3,0,2.7,0,4,.1,3.9,0,7.9.2,11.7-.2,3.5-.3,6.9-1.2,10.4-1.2,2.5,0,4.9,0,7.4,0,3.4,0,6.7.6,10.1.7,6.5.2,12.8-.7,19.3-.7,12,0,23.9,0,35.9,0,4,0,8.2-.7,12.2.2,3.3.7,6.1,1.7,9.6,1.7,7.6,0,15.1,0,22.7,0s5.8,0,8.7.7c2.7.7,5.6.1,8.2-.7,3.5-1.1,6.6-.4,10.3,0,4.2.3,9.1,1.1,13.2,0,2.4-.6,4.9-.4,7.4-.4h7.4c.4,0,.3,24.9.4,27.4,0,4-1.1,7.9-.5,11.9.6,4.1.4,8.1.6,12.2.5,8.3.5,16.6.5,24.9s.1,8.2,0,12.3c-.1,3.8-.7,7.4-.7,11.2,0,5.5-.7,10.9-.6,16.4,0,10.1,0,20.3,0,30.5v58.3c0,3.1-.3,6.3.1,9.3.3,1.7.6,3.3.5,5,0,1.7-.5,3.1-.4,4.8.1,2.5,0,4.9,0,7.4s.1,2.2-.2,3.3h0Z"/>
  </g>
  <g id="_x32_4215">
    <path class="st2" d="M317.7,152.7s-.1,0-.2,0c-.5,0-.9.3-1.4.4-.2,0-.5,0-.7,0s-.6,0-.9,0c-.3,0-.7,0-1,0-.2,0-.5,0-.7,0-.4,0-.7,0-1.1-.1-.2,0-.5,0-.7,0h-1.7c-.4,0-.8,0-1.2,0-.3,0-.7,0-1,0-.1,0-.2,0-.3,0-.1,0-.3,0-.4,0-.1,0-.2,0-.3,0-.1,0-.2,0-.3,0-.2,0-.3,0-.5,0-.1,0-.3,0-.4,0-.2,0-.3,0-.4,0-.1,0-.2,0-.4,0-.3,0-.6,0-.9,0-.2,0-.4,0-.7,0-.6,0-1.2,0-1.9,0-.8,0-1.5.4-2.3.4-1.1,0-2.1-.4-3.1-.3-3.3,0-6.6,0-9.9,0s-3.2-.2-4.7,0c-.5,0-.8.3-1.2.4-.4,0-.8,0-1.2,0-.8,0-1.5.4-2.4.4-4,0-8,0-12,0s-2.2.2-3.3,0c-.8-.1-1.5-.4-2.4-.4-2.3,0-4.5.3-6.8.3-2.9,0-6.4.5-9.2-.3-.7-.2-1.6,0-2.3,0-1.3,0-2.4,0-3.7.3-1.6.4-3.9.2-5.5-.2-.4-.1-.8,0-1.2,0-.5,0-1-.3-1.5-.4-.6,0-1.3,0-1.9,0-1.9,0-3.8,0-5.7,0-1.2,0-2.3.4-3.5.4-.6,0-1.2,0-1.7,0-1.6,0-3-.3-4.6-.3-1.5,0-3,0-4.5,0-.7,0-1.5,0-2.2,0-1.3.3-2.5.3-3.9.3h-19.6c-1.8,0-3.6,0-5.4,0-2.2,0-4.4.3-6.6.3-1.4,0-2.6-.3-4-.3-1.8,0-3.6,0-5.4,0h-4.8c-.6,0-1.3,0-1.9,0-.4,0-.8,0-1.2,0-.6,0-1,.3-1.6.4-1,.2-2.1.1-3.1,0-.8,0-1.7,0-2.5,0h-.6c-.2,0-.4,0-.7.1-.3,0-.7,0-1.1,0-.3,0-.6,0-1,0-.3,0-.7,0-1,0-.5,0-1.1,0-1.6,0-.2,0-.4,0-.6,0-.2,0-.5,0-.7.1-.5.2-1.1,0-1.6,0-.6,0-1.2-.3-1.8-.3-.6,0-1.1-.1-1.7-.3-.6-.1-.8-.8-.9-1.3,0-.2,0-.5,0-.7,0-.3,0-.6,0-.9s0-.5,0-.7c0-.4,0-.8-.1-1.2,0-.6,0-1.3,0-2,0-.4,0-.8,0-1.2,0-.5,0-1,0-1.4s0-1,0-1.4c0-.5,0-.9,0-1.4,0-.7.1-1.4.1-2.1,0-.3,0-.7,0-1,0-.3.2-.6.2-1,0-.5-.1-1-.2-1.5,0-.6,0-1.1,0-1.7,0-.2,0-.3.1-.5,0-.2,0-.5,0-.7,0-.6,0-1.1,0-1.7,0-.4,0-.7,0-1.1,0-.5.3-.9.3-1.4l1.3-1.9c1.7,0,3.4,0,5.1,0,.8,0,1.4-.1,2.2-.3.9-.2,1.9,0,2.8,0,1.1,0,1.9-.1,2.9-.4,1.3-.4,2.6-.1,3.9-.2.8,0,1.5-.4,2.3-.4,1.1,0,2.1.4,3.1.3,3.3,0,6.6,0,9.9,0s3.2.2,4.7,0c.5,0,.8-.3,1.2-.4.4,0,.8,0,1.2,0,.8,0,1.5-.4,2.4-.4,4,0,8,0,12,0s2.2-.2,3.3,0c.8.1,1.5.4,2.4.4,2.3,0,4.5-.3,6.8-.3s6.4-.5,9.2.3c.7.2,1.6,0,2.3,0,1.3,0,2.4,0,3.7-.3,1.6-.4,3.9-.2,5.5.2.4.1.8,0,1.2,0,.5,0,1,.3,1.5.4.6,0,1.3,0,1.9,0,1.9,0,3.8,0,5.7,0,1.2,0,2.3-.4,3.5-.4.6,0,1.2,0,1.7,0,1.6,0,3,.3,4.6.3,1.5,0,3,0,4.5,0,.7,0,1.5,0,2.2,0,1.3-.3,2.5-.3,3.9-.3h19.6c1.8,0,3.6,0,5.4,0,2.2,0,4.4-.3,6.6-.3,1.4,0,2.6.3,4,.3h12.2c.4,0,.8,0,1.2,0,.6,0,1-.3,1.6-.4,1.8-.3,3.8,0,5.6,0h4.8c.4,0,.8,0,1.2,0,.3,0,.6,0,.9,0,.1,0,.2,0,.3,0,.4,0,.8,0,1.2,0,.8,0,1.6,0,2.4,0,.5,0,1.1-.2,1.6-.1.1,0,.2,0,.3.1.1.2.2.4.3.6.1.4.1.9.1,1.4,0,.6,0,1.2,0,1.7,0,.8,0,1.6,0,2.3,0,.9,0,1.8,0,2.7s0,.7,0,1c0,.3-.1.6-.1.9,0,.2,0,.5,0,.7,0,.3,0,.7,0,1,0,.2,0,.5,0,.7,0,.3.1.5.1.8,0,.1,0,.2,0,.3,0,.2,0,.4,0,.6,0,.6,0,1.2,0,1.9,0,.3.1.6.2.8,0,.2,0,.5,0,.7,0,.5,0,1-.2,1.5,0,.3,0,.6,0,.9,0,.4,0,.8,0,1.2,0,.2,0,.5,0,.7,0,.4-.1.8-.1,1.2,0,.3,0,.5,0,.8,0,.3-.1.6-.2.8,0,.2,0,.5,0,.7,0,.2,0,.5,0,.7,0,.1,0,.2,0,.3,0,.2,0,.2-.2.2-.1,0-.3,0-.4,0-.1,0-.3,0-.4,0Z"/>
  </g>
  <g id="_x32_4216">
    <path d="M142.4,132.1c-.3,0-.5,0-.8,0,0,0-.1,0-.2,0,0,0-.2,0-.3,0-.3,0-.6,0-.9,0-.1,0-.2,0-.4,0-.1,0-.3,0-.4,0-.2,0-.4,0-.6.1,0,0-.2,0-.3,0,0,0,0,0-.1,0,0,0,0,0-.1,0,0,0-.1,0-.2,0,0,0,0,0-.1,0,0,0,0,.1-.1.2,0,0,0,0,0,.1,0,0,0,0,0,.1,0,.1,0,.3,0,.5v1.7c0,0,0,.2,0,.2,0,.1,0,.3,0,.4,0,0,0,.1,0,.2,0,0,0,.1,0,.2,0,0,0,.1,0,.2,0,0,0,.2,0,.2,0,.1,0,.3,0,.4v.6c0,0,0,.1,0,.2,0,0,0,0,0,.1,0,0,0,.2,0,.3,0,0,0,.1,0,.2,0,0,0,.1,0,.2,0,.1,0,.2,0,.3,0,0,0,0,0,.2,0,0,0,0,0,.1,0,0,0,0,0,.1,0,0,0,0,0,.1,0,0,0,.2,0,.3,0,.2,0,.4,0,.7s0,.4,0,.7c0,0,0,.2,0,.3,0,0,0,.2,0,.3v.5c0,.4,0,.7,0,1.1,0,.2,0,.4,0,.6,0,.2,0,.3,0,.5v.8c0,.2,0,.5,0,.7,0,.2,0,.3,0,.5,0,.1,0,.2,0,.3,0,0,0,.1,0,.2,0,0,.1.2.2.2.5.3,1.2.3,1.8.3h.8c.5,0,1,0,1.5,0,.6,0,1.3,0,1.9,0,.3,0,.7,0,1,0,.2,0,.5,0,.7,0,.2,0,.4,0,.6,0,.3,0,.6,0,.9,0,.3,0,.5,0,.7,0h.7c.3,0,.6,0,.9,0,.1,0,.2,0,.3,0,.1,0,.2,0,.4-.1,0,0,.1,0,.2,0,0,0,0,0,.1,0,.1,0,.2,0,.3,0,.1,0,.3,0,.4,0,0,0,.1,0,.2,0,0,0,0,0,.1,0,.1,0,.2-.1.3-.2,0,0,.1,0,.1,0,0,0,0,0,0,0,0,0,.2,0,.2-.1,0,0,0,0,0-.1,0,0,0,0,0,0,0,0,0-.2,0-.2,0,0,0-.1,0-.2,0,0,0-.2,0-.3,0,0,0-.1,0-.2,0,0,0-.2,0-.3,0-.1,0-.1,0-.2,0-.2,0-.4,0-.6v-1.1c0-.1,0-.2,0-.3,0,0,0-.1,0-.2,0-.4,0-.9,0-1.3s0-.6,0-.9c0-.2,0-.4,0-.7-.1-.6,0-1.2,0-1.8v-1.6c0-.2,0-.4,0-.6,0-.1,0-.3,0-.4,0,0,0,0,0-.2,0-.4,0-.8,0-1.3s0-.4,0-.5c0-.1,0-.2-.1-.3,0,0,0-.1,0-.2,0,0,0,0,0-.1,0-.1,0-.2-.1-.3-.2-.2-.3-.2-.5-.3,0,0-.2,0-.2,0-.1,0-.2,0-.3,0-.4,0-.8,0-1.2,0-.3,0-.6,0-.9,0-.1,0-.2,0-.4,0-.2,0-.4,0-.5,0-.2,0-.5,0-.7,0-.2,0-.5,0-.7,0-.3,0-.7,0-1.1,0-.4,0-.9,0-1.3,0-.6,0-1.1,0-1.7,0h0Z"/>
  </g>
  <g id="_x32_4227">
    <path d="M162.3,132.1c-.3,0-.5,0-.8,0,0,0-.1,0-.2,0,0,0-.2,0-.3,0-.3,0-.6,0-.9,0-.1,0-.2,0-.4,0-.1,0-.3,0-.4,0-.2,0-.4,0-.6.1,0,0-.2,0-.3,0,0,0,0,0-.1,0,0,0,0,0-.1,0,0,0-.1,0-.2,0,0,0,0,0-.1,0,0,0,0,.1-.1.2,0,0,0,0,0,.1,0,0,0,0,0,.1,0,.1,0,.3,0,.5v1.7c0,0,0,.2,0,.2,0,.1,0,.3,0,.4,0,0,0,.1,0,.2,0,0,0,.1,0,.2,0,0,0,.1,0,.2,0,0,0,.2,0,.2,0,.1,0,.3,0,.4v.6c0,0,0,.1,0,.2,0,0,0,0,0,.1,0,0,0,.2,0,.3,0,0,0,.1,0,.2,0,0,0,.1,0,.2,0,.1,0,.2,0,.3,0,0,0,0,0,.2,0,0,0,0,0,.1,0,0,0,0,0,.1,0,0,0,0,0,.1,0,0,0,.2,0,.3,0,.2,0,.4,0,.7s0,.4,0,.7c0,0,0,.2,0,.3,0,0,0,.2,0,.3v.5c0,.4,0,.7,0,1.1,0,.2,0,.4,0,.6,0,.2,0,.3,0,.5v.8c0,.2,0,.5,0,.7,0,.2,0,.3,0,.5,0,.1,0,.2,0,.3,0,0,0,.1,0,.2,0,0,.1.2.2.2.5.3,1.2.3,1.8.3h.8c.5,0,1,0,1.5,0,.6,0,1.3,0,1.9,0,.3,0,.7,0,1,0,.2,0,.5,0,.7,0,.2,0,.4,0,.6,0,.3,0,.6,0,.9,0,.3,0,.5,0,.7,0h.7c.3,0,.6,0,.9,0,.1,0,.2,0,.3,0,.1,0,.2,0,.4-.1,0,0,.1,0,.2,0,0,0,0,0,.1,0,.1,0,.2,0,.3,0,.1,0,.3,0,.4,0,0,0,.1,0,.2,0,0,0,0,0,.1,0,.1,0,.2-.1.3-.2,0,0,.1,0,.1,0,0,0,0,0,0,0,0,0,.2,0,.2-.1,0,0,0,0,0-.1,0,0,0,0,0,0,0,0,0-.2,0-.2,0,0,0-.1,0-.2,0,0,0-.2,0-.3,0,0,0-.1,0-.2,0,0,0-.2,0-.3,0-.1,0-.1,0-.2,0-.2,0-.4,0-.6v-1.1c0-.1,0-.2,0-.3,0,0,0-.1,0-.2,0-.4,0-.9,0-1.3s0-.6,0-.9c0-.2,0-.4,0-.7-.1-.6,0-1.2,0-1.8v-1.6c0-.2,0-.4,0-.6,0-.1,0-.3,0-.4,0,0,0,0,0-.2,0-.4,0-.8,0-1.3s0-.4,0-.5c0-.1,0-.2-.1-.3,0,0,0-.1,0-.2,0,0,0,0,0-.1,0-.1,0-.2-.1-.3-.2-.2-.3-.2-.5-.3,0,0-.2,0-.2,0-.1,0-.2,0-.3,0-.4,0-.8,0-1.2,0-.3,0-.6,0-.9,0-.1,0-.2,0-.4,0-.2,0-.4,0-.5,0-.2,0-.5,0-.7,0-.2,0-.5,0-.7,0-.3,0-.7,0-1.1,0-.4,0-.9,0-1.3,0-.6,0-1.1,0-1.7,0h0Z"/>
  </g>
  <g id="_x32_4228">
    <path d="M182.2,132.1c-.3,0-.5,0-.8,0,0,0-.1,0-.2,0,0,0-.2,0-.3,0-.3,0-.6,0-.9,0-.1,0-.2,0-.4,0-.1,0-.3,0-.4,0-.2,0-.4,0-.6.1,0,0-.2,0-.3,0,0,0,0,0-.1,0,0,0,0,0-.1,0,0,0-.1,0-.2,0,0,0,0,0-.1,0,0,0,0,.1-.1.2,0,0,0,0,0,.1,0,0,0,0,0,.1,0,.1,0,.3,0,.5v1.7c0,0,0,.2,0,.2,0,.1,0,.3,0,.4,0,0,0,.1,0,.2,0,0,0,.1,0,.2,0,0,0,.1,0,.2,0,0,0,.2,0,.2,0,.1,0,.3,0,.4v.6c0,0,0,.1,0,.2,0,0,0,0,0,.1,0,0,0,.2,0,.3,0,0,0,.1,0,.2,0,0,0,.1,0,.2,0,.1,0,.2,0,.3,0,0,0,0,0,.2,0,0,0,0,0,.1,0,0,0,0,0,.1,0,0,0,0,0,.1,0,0,0,.2,0,.3,0,.2,0,.4,0,.7s0,.4,0,.7c0,0,0,.2,0,.3,0,0,0,.2,0,.3v.5c0,.4,0,.7,0,1.1,0,.2,0,.4,0,.6,0,.2,0,.3,0,.5v.8c0,.2,0,.5,0,.7,0,.2,0,.3,0,.5,0,.1,0,.2,0,.3,0,0,0,.1,0,.2,0,0,.1.2.2.2.5.3,1.2.3,1.8.3h.8c.5,0,1,0,1.5,0,.6,0,1.3,0,1.9,0,.3,0,.7,0,1,0,.2,0,.5,0,.7,0,.2,0,.4,0,.6,0,.3,0,.6,0,.9,0,.3,0,.5,0,.7,0h.7c.3,0,.6,0,.9,0,.1,0,.2,0,.3,0,.1,0,.2,0,.4-.1,0,0,.1,0,.2,0,0,0,0,0,.1,0,.1,0,.2,0,.3,0,.1,0,.3,0,.4,0,0,0,.1,0,.2,0,0,0,0,0,.1,0,.1,0,.2-.1.3-.2,0,0,.1,0,.1,0,0,0,0,0,0,0,0,0,.2,0,.2-.1,0,0,0,0,0-.1,0,0,0,0,0,0,0,0,0-.2,0-.2,0,0,0-.1,0-.2,0,0,0-.2,0-.3,0,0,0-.1,0-.2,0,0,0-.2,0-.3,0-.1,0-.1,0-.2,0-.2,0-.4,0-.6v-1.1c0-.1,0-.2,0-.3,0,0,0-.1,0-.2,0-.4,0-.9,0-1.3s0-.6,0-.9c0-.2,0-.4,0-.7-.1-.6,0-1.2,0-1.8v-1.6c0-.2,0-.4,0-.6,0-.1,0-.3,0-.4,0,0,0,0,0-.2,0-.4,0-.8,0-1.3s0-.4,0-.5c0-.1,0-.2-.1-.3,0,0,0-.1,0-.2,0,0,0,0,0-.1,0-.1,0-.2-.1-.3-.2-.2-.3-.2-.5-.3,0,0-.2,0-.2,0-.1,0-.2,0-.3,0-.4,0-.8,0-1.2,0-.3,0-.6,0-.9,0-.1,0-.2,0-.4,0-.2,0-.4,0-.5,0-.2,0-.5,0-.7,0-.2,0-.5,0-.7,0-.3,0-.7,0-1.1,0-.4,0-.9,0-1.3,0-.6,0-1.1,0-1.7,0h0Z"/>
  </g>
  <g id="_x32_4229">
    <path d="M202.1,132.1c-.3,0-.5,0-.8,0,0,0-.1,0-.2,0,0,0-.2,0-.3,0-.3,0-.6,0-.9,0-.1,0-.2,0-.4,0-.1,0-.3,0-.4,0-.2,0-.4,0-.6.1,0,0-.2,0-.3,0,0,0,0,0-.1,0,0,0,0,0-.1,0,0,0-.1,0-.2,0,0,0,0,0-.1,0,0,0,0,.1-.1.2,0,0,0,0,0,.1,0,0,0,0,0,.1,0,.1,0,.3,0,.5v1.7c0,0,0,.2,0,.2,0,.1,0,.3,0,.4,0,0,0,.1,0,.2,0,0,0,.1,0,.2,0,0,0,.1,0,.2,0,0,0,.2,0,.2,0,.1,0,.3,0,.4v.6c0,0,0,.1,0,.2,0,0,0,0,0,.1,0,0,0,.2,0,.3,0,0,0,.1,0,.2,0,0,0,.1,0,.2,0,.1,0,.2,0,.3,0,0,0,0,0,.2,0,0,0,0,0,.1,0,0,0,0,0,.1,0,0,0,0,0,.1,0,0,0,.2,0,.3,0,.2,0,.4,0,.7s0,.4,0,.7c0,0,0,.2,0,.3,0,0,0,.2,0,.3v.5c0,.4,0,.7,0,1.1,0,.2,0,.4,0,.6,0,.2,0,.3,0,.5v.8c0,.2,0,.5,0,.7,0,.2,0,.3,0,.5,0,.1,0,.2,0,.3,0,0,0,.1,0,.2,0,0,.1.2.2.2.5.3,1.2.3,1.8.3h.8c.5,0,1,0,1.5,0,.6,0,1.3,0,1.9,0,.3,0,.7,0,1,0,.2,0,.5,0,.7,0,.2,0,.4,0,.6,0,.3,0,.6,0,.9,0,.3,0,.5,0,.7,0h.7c.3,0,.6,0,.9,0,.1,0,.2,0,.3,0,.1,0,.2,0,.4-.1,0,0,.1,0,.2,0,0,0,0,0,.1,0,.1,0,.2,0,.3,0,.1,0,.3,0,.4,0,0,0,.1,0,.2,0,0,0,0,0,.1,0,.1,0,.2-.1.3-.2,0,0,.1,0,.1,0,0,0,0,0,0,0,0,0,.2,0,.2-.1,0,0,0,0,0-.1,0,0,0,0,0,0,0,0,0-.2,0-.2,0,0,0-.1,0-.2,0,0,0-.2,0-.3,0,0,0-.1,0-.2,0,0,0-.2,0-.3,0-.1,0-.1,0-.2,0-.2,0-.4,0-.6v-1.1c0-.1,0-.2,0-.3,0,0,0-.1,0-.2,0-.4,0-.9,0-1.3s0-.6,0-.9c0-.2,0-.4,0-.7-.1-.6,0-1.2,0-1.8v-1.6c0-.2,0-.4,0-.6,0-.1,0-.3,0-.4,0,0,0,0,0-.2,0-.4,0-.8,0-1.3s0-.4,0-.5c0-.1,0-.2-.1-.3,0,0,0-.1,0-.2,0,0,0,0,0-.1,0-.1,0-.2-.1-.3-.2-.2-.3-.2-.5-.3,0,0-.2,0-.2,0-.1,0-.2,0-.3,0-.4,0-.8,0-1.2,0-.3,0-.6,0-.9,0-.1,0-.2,0-.4,0-.2,0-.4,0-.5,0-.2,0-.5,0-.7,0-.2,0-.5,0-.7,0-.3,0-.7,0-1.1,0-.4,0-.9,0-1.3,0-.6,0-1.1,0-1.7,0h0Z"/>
  </g>
  <g id="_x32_4230">
    <path d="M222,132.1c-.3,0-.5,0-.8,0,0,0-.1,0-.2,0,0,0-.2,0-.3,0-.3,0-.6,0-.9,0-.1,0-.2,0-.4,0-.1,0-.3,0-.4,0-.2,0-.4,0-.6.1,0,0-.2,0-.3,0,0,0,0,0-.1,0,0,0,0,0-.1,0,0,0-.1,0-.2,0,0,0,0,0-.1,0,0,0,0,.1-.1.2,0,0,0,0,0,.1,0,0,0,0,0,.1,0,.1,0,.3,0,.5v1.7c0,0,0,.2,0,.2,0,.1,0,.3,0,.4,0,0,0,.1,0,.2,0,0,0,.1,0,.2,0,0,0,.1,0,.2,0,0,0,.2,0,.2,0,.1,0,.3,0,.4v.6c0,0,0,.1,0,.2,0,0,0,0,0,.1,0,0,0,.2,0,.3,0,0,0,.1,0,.2,0,0,0,.1,0,.2,0,.1,0,.2,0,.3,0,0,0,0,0,.2,0,0,0,0,0,.1,0,0,0,0,0,.1,0,0,0,0,0,.1,0,0,0,.2,0,.3,0,.2,0,.4,0,.7s0,.4,0,.7c0,0,0,.2,0,.3,0,0,0,.2,0,.3v.5c0,.4,0,.7,0,1.1,0,.2,0,.4,0,.6,0,.2,0,.3,0,.5v.8c0,.2,0,.5,0,.7,0,.2,0,.3,0,.5,0,.1,0,.2,0,.3,0,0,0,.1,0,.2,0,0,.1.2.2.2.5.3,1.2.3,1.8.3h.8c.5,0,1,0,1.5,0,.6,0,1.3,0,1.9,0,.3,0,.7,0,1,0,.2,0,.5,0,.7,0,.2,0,.4,0,.6,0,.3,0,.6,0,.9,0,.3,0,.5,0,.7,0h.7c.3,0,.6,0,.9,0,.1,0,.2,0,.3,0,.1,0,.2,0,.4-.1,0,0,.1,0,.2,0,0,0,0,0,.1,0,.1,0,.2,0,.3,0,.1,0,.3,0,.4,0,0,0,.1,0,.2,0,0,0,0,0,.1,0,.1,0,.2-.1.3-.2,0,0,.1,0,.1,0,0,0,0,0,0,0,0,0,.2,0,.2-.1,0,0,0,0,0-.1,0,0,0,0,0,0,0,0,0-.2,0-.2,0,0,0-.1,0-.2,0,0,0-.2,0-.3,0,0,0-.1,0-.2,0,0,0-.2,0-.3,0-.1,0-.1,0-.2,0-.2,0-.4,0-.6v-1.1c0-.1,0-.2,0-.3,0,0,0-.1,0-.2,0-.4,0-.9,0-1.3s0-.6,0-.9c0-.2,0-.4,0-.7-.1-.6,0-1.2,0-1.8v-1.6c0-.2,0-.4,0-.6,0-.1,0-.3,0-.4,0,0,0,0,0-.2,0-.4,0-.8,0-1.3s0-.4,0-.5c0-.1,0-.2-.1-.3,0,0,0-.1,0-.2,0,0,0,0,0-.1,0-.1,0-.2-.1-.3-.2-.2-.3-.2-.5-.3,0,0-.2,0-.2,0-.1,0-.2,0-.3,0-.4,0-.8,0-1.2,0-.3,0-.6,0-.9,0-.1,0-.2,0-.4,0-.2,0-.4,0-.5,0-.2,0-.5,0-.7,0-.2,0-.5,0-.7,0-.3,0-.7,0-1.1,0-.4,0-.9,0-1.3,0-.6,0-1.1,0-1.7,0h0Z"/>
  </g>
  <g id="_x32_4231">
    <path d="M241.9,132.1c-.3,0-.5,0-.8,0,0,0-.1,0-.2,0,0,0-.2,0-.3,0-.3,0-.6,0-.9,0-.1,0-.2,0-.4,0-.1,0-.3,0-.4,0-.2,0-.4,0-.6.1,0,0-.2,0-.3,0,0,0,0,0-.1,0,0,0,0,0-.1,0,0,0-.1,0-.2,0,0,0,0,0-.1,0,0,0,0,.1-.1.2,0,0,0,0,0,.1,0,0,0,0,0,.1,0,.1,0,.3,0,.5v1.7c0,0,0,.2,0,.2,0,.1,0,.3,0,.4,0,0,0,.1,0,.2,0,0,0,.1,0,.2,0,0,0,.1,0,.2,0,0,0,.2,0,.2,0,.1,0,.3,0,.4v.6c0,0,0,.1,0,.2,0,0,0,0,0,.1,0,0,0,.2,0,.3,0,0,0,.1,0,.2,0,0,0,.1,0,.2,0,.1,0,.2,0,.3,0,0,0,0,0,.2,0,0,0,0,0,.1,0,0,0,0,0,.1,0,0,0,0,0,.1,0,0,0,.2,0,.3,0,.2,0,.4,0,.7s0,.4,0,.7c0,0,0,.2,0,.3,0,0,0,.2,0,.3v.5c0,.4,0,.7,0,1.1,0,.2,0,.4,0,.6,0,.2,0,.3,0,.5v.8c0,.2,0,.5,0,.7,0,.2,0,.3,0,.5,0,.1,0,.2,0,.3,0,0,0,.1,0,.2,0,0,.1.2.2.2.5.3,1.2.3,1.8.3h.8c.5,0,1,0,1.5,0,.6,0,1.3,0,1.9,0,.3,0,.7,0,1,0,.2,0,.5,0,.7,0,.2,0,.4,0,.6,0,.3,0,.6,0,.9,0,.3,0,.5,0,.7,0h.7c.3,0,.6,0,.9,0,.1,0,.2,0,.3,0,.1,0,.2,0,.4-.1,0,0,.1,0,.2,0,0,0,0,0,.1,0,.1,0,.2,0,.3,0,.1,0,.3,0,.4,0,0,0,.1,0,.2,0,0,0,0,0,.1,0,.1,0,.2-.1.3-.2,0,0,.1,0,.1,0,0,0,0,0,0,0,0,0,.2,0,.2-.1,0,0,0,0,0-.1,0,0,0,0,0,0,0,0,0-.2,0-.2,0,0,0-.1,0-.2,0,0,0-.2,0-.3,0,0,0-.1,0-.2,0,0,0-.2,0-.3,0-.1,0-.1,0-.2,0-.2,0-.4,0-.6v-1.1c0-.1,0-.2,0-.3,0,0,0-.1,0-.2,0-.4,0-.9,0-1.3s0-.6,0-.9c0-.2,0-.4,0-.7-.1-.6,0-1.2,0-1.8v-1.6c0-.2,0-.4,0-.6,0-.1,0-.3,0-.4,0,0,0,0,0-.2,0-.4,0-.8,0-1.3s0-.4,0-.5c0-.1,0-.2-.1-.3,0,0,0-.1,0-.2,0,0,0,0,0-.1,0-.1,0-.2-.1-.3-.2-.2-.3-.2-.5-.3,0,0-.2,0-.2,0-.1,0-.2,0-.3,0-.4,0-.8,0-1.2,0-.3,0-.6,0-.9,0-.1,0-.2,0-.4,0-.2,0-.4,0-.5,0-.2,0-.5,0-.7,0-.2,0-.5,0-.7,0-.3,0-.7,0-1.1,0-.4,0-.9,0-1.3,0-.6,0-1.1,0-1.7,0h0Z"/>
  </g>
  <g id="_x32_4232">
    <path d="M261.8,132.1c-.3,0-.5,0-.8,0,0,0-.1,0-.2,0,0,0-.2,0-.3,0-.3,0-.6,0-.9,0-.1,0-.2,0-.4,0-.1,0-.3,0-.4,0-.2,0-.4,0-.6.1,0,0-.2,0-.3,0,0,0,0,0-.1,0,0,0,0,0-.1,0,0,0-.1,0-.2,0,0,0,0,0-.1,0,0,0,0,.1-.1.2,0,0,0,0,0,.1,0,0,0,0,0,.1,0,.1,0,.3,0,.5v1.7c0,0,0,.2,0,.2,0,.1,0,.3,0,.4,0,0,0,.1,0,.2,0,0,0,.1,0,.2,0,0,0,.1,0,.2,0,0,0,.2,0,.2,0,.1,0,.3,0,.4v.6c0,0,0,.1,0,.2,0,0,0,0,0,.1,0,0,0,.2,0,.3,0,0,0,.1,0,.2,0,0,0,.1,0,.2,0,.1,0,.2,0,.3,0,0,0,0,0,.2,0,0,0,0,0,.1,0,0,0,0,0,.1,0,0,0,0,0,.1,0,0,0,.2,0,.3,0,.2,0,.4,0,.7s0,.4,0,.7c0,0,0,.2,0,.3,0,0,0,.2,0,.3v.5c0,.4,0,.7,0,1.1,0,.2,0,.4,0,.6,0,.2,0,.3,0,.5v.8c0,.2,0,.5,0,.7,0,.2,0,.3,0,.5,0,.1,0,.2,0,.3,0,0,0,.1,0,.2,0,0,.1.2.2.2.5.3,1.2.3,1.8.3h.8c.5,0,1,0,1.5,0,.6,0,1.3,0,1.9,0,.3,0,.7,0,1,0,.2,0,.5,0,.7,0,.2,0,.4,0,.6,0,.3,0,.6,0,.9,0,.3,0,.5,0,.7,0h.7c.3,0,.6,0,.9,0,.1,0,.2,0,.3,0,.1,0,.2,0,.4-.1,0,0,.1,0,.2,0,0,0,0,0,.1,0,.1,0,.2,0,.3,0,.1,0,.3,0,.4,0,0,0,.1,0,.2,0,0,0,0,0,.1,0,.1,0,.2-.1.3-.2,0,0,.1,0,.1,0,0,0,0,0,0,0,0,0,.2,0,.2-.1,0,0,0,0,0-.1,0,0,0,0,0,0,0,0,0-.2,0-.2,0,0,0-.1,0-.2,0,0,0-.2,0-.3,0,0,0-.1,0-.2,0,0,0-.2,0-.3,0-.1,0-.1,0-.2,0-.2,0-.4,0-.6v-1.1c0-.1,0-.2,0-.3,0,0,0-.1,0-.2,0-.4,0-.9,0-1.3s0-.6,0-.9c0-.2,0-.4,0-.7-.1-.6,0-1.2,0-1.8v-1.6c0-.2,0-.4,0-.6,0-.1,0-.3,0-.4,0,0,0,0,0-.2,0-.4,0-.8,0-1.3s0-.4,0-.5c0-.1,0-.2-.1-.3,0,0,0-.1,0-.2,0,0,0,0,0-.1,0-.1,0-.2-.1-.3-.2-.2-.3-.2-.5-.3,0,0-.2,0-.2,0-.1,0-.2,0-.3,0-.4,0-.8,0-1.2,0-.3,0-.6,0-.9,0-.1,0-.2,0-.4,0-.2,0-.4,0-.5,0-.2,0-.5,0-.7,0-.2,0-.5,0-.7,0-.3,0-.7,0-1.1,0-.4,0-.9,0-1.3,0-.6,0-1.1,0-1.7,0h0Z"/>
  </g>
  <g id="_x32_4233">
    <path d="M281.7,132.1c-.3,0-.5,0-.8,0,0,0-.1,0-.2,0,0,0-.2,0-.3,0-.3,0-.6,0-.9,0-.1,0-.2,0-.4,0-.1,0-.3,0-.4,0-.2,0-.4,0-.6.1,0,0-.2,0-.3,0,0,0,0,0-.1,0,0,0,0,0-.1,0,0,0-.1,0-.2,0,0,0,0,0-.1,0,0,0,0,.1-.1.2,0,0,0,0,0,.1,0,0,0,0,0,.1,0,.1,0,.3,0,.5v1.7c0,0,0,.2,0,.2,0,.1,0,.3,0,.4,0,0,0,.1,0,.2,0,0,0,.1,0,.2,0,0,0,.1,0,.2,0,0,0,.2,0,.2,0,.1,0,.3,0,.4v.6c0,0,0,.1,0,.2,0,0,0,0,0,.1,0,0,0,.2,0,.3,0,0,0,.1,0,.2,0,0,0,.1,0,.2,0,.1,0,.2,0,.3,0,0,0,0,0,.2,0,0,0,0,0,.1,0,0,0,0,0,.1,0,0,0,0,0,.1,0,0,0,.2,0,.3,0,.2,0,.4,0,.7s0,.4,0,.7c0,0,0,.2,0,.3,0,0,0,.2,0,.3v.5c0,.4,0,.7,0,1.1,0,.2,0,.4,0,.6,0,.2,0,.3,0,.5v.8c0,.2,0,.5,0,.7,0,.2,0,.3,0,.5,0,.1,0,.2,0,.3,0,0,0,.1,0,.2,0,0,.1.2.2.2.5.3,1.2.3,1.8.3h.8c.5,0,1,0,1.5,0,.6,0,1.3,0,1.9,0,.3,0,.7,0,1,0,.2,0,.5,0,.7,0,.2,0,.4,0,.6,0,.3,0,.6,0,.9,0,.3,0,.5,0,.7,0h.7c.3,0,.6,0,.9,0,.1,0,.2,0,.3,0,.1,0,.2,0,.4-.1,0,0,.1,0,.2,0,0,0,0,0,.1,0,.1,0,.2,0,.3,0,.1,0,.3,0,.4,0,0,0,.1,0,.2,0,0,0,0,0,.1,0,.1,0,.2-.1.3-.2,0,0,.1,0,.1,0,0,0,0,0,0,0,0,0,.2,0,.2-.1,0,0,0,0,0-.1,0,0,0,0,0,0,0,0,0-.2,0-.2,0,0,0-.1,0-.2,0,0,0-.2,0-.3,0,0,0-.1,0-.2,0,0,0-.2,0-.3,0-.1,0-.1,0-.2,0-.2,0-.4,0-.6v-1.1c0-.1,0-.2,0-.3,0,0,0-.1,0-.2,0-.4,0-.9,0-1.3s0-.6,0-.9c0-.2,0-.4,0-.7-.1-.6,0-1.2,0-1.8v-1.6c0-.2,0-.4,0-.6,0-.1,0-.3,0-.4,0,0,0,0,0-.2,0-.4,0-.8,0-1.3s0-.4,0-.5c0-.1,0-.2-.1-.3,0,0,0-.1,0-.2,0,0,0,0,0-.1,0-.1,0-.2-.1-.3-.2-.2-.3-.2-.5-.3,0,0-.2,0-.2,0-.1,0-.2,0-.3,0-.4,0-.8,0-1.2,0-.3,0-.6,0-.9,0-.1,0-.2,0-.4,0-.2,0-.4,0-.5,0-.2,0-.5,0-.7,0-.2,0-.5,0-.7,0-.3,0-.7,0-1.1,0-.4,0-.9,0-1.3,0-.6,0-1.1,0-1.7,0h0Z"/>
  </g>
  <g id="_x32_4234">
    <path d="M301.5,132.1c-.3,0-.5,0-.8,0,0,0-.1,0-.2,0,0,0-.2,0-.3,0-.3,0-.6,0-.9,0-.1,0-.2,0-.4,0-.1,0-.3,0-.4,0-.2,0-.4,0-.6.1,0,0-.2,0-.3,0,0,0,0,0-.1,0,0,0,0,0-.1,0,0,0-.1,0-.2,0,0,0,0,0-.1,0,0,0,0,.1-.1.2,0,0,0,0,0,.1,0,0,0,0,0,.1,0,.1,0,.3,0,.5v1.7c0,0,0,.2,0,.2,0,.1,0,.3,0,.4,0,0,0,.1,0,.2,0,0,0,.1,0,.2,0,0,0,.1,0,.2,0,0,0,.2,0,.2,0,.1,0,.3,0,.4v.6c0,0,0,.1,0,.2,0,0,0,0,0,.1,0,0,0,.2,0,.3,0,0,0,.1,0,.2,0,0,0,.1,0,.2,0,.1,0,.2,0,.3,0,0,0,0,0,.2,0,0,0,0,0,.1,0,0,0,0,0,.1,0,0,0,0,0,.1,0,0,0,.2,0,.3,0,.2,0,.4,0,.7s0,.4,0,.7c0,0,0,.2,0,.3,0,0,0,.2,0,.3v.5c0,.4,0,.7,0,1.1,0,.2,0,.4,0,.6,0,.2,0,.3,0,.5v.8c0,.2,0,.5,0,.7,0,.2,0,.3,0,.5,0,.1,0,.2,0,.3,0,0,0,.1,0,.2,0,0,.1.2.2.2.5.3,1.2.3,1.8.3h.8c.5,0,1,0,1.5,0,.6,0,1.3,0,1.9,0,.3,0,.7,0,1,0,.2,0,.5,0,.7,0,.2,0,.4,0,.6,0,.3,0,.6,0,.9,0,.3,0,.5,0,.7,0h.7c.3,0,.6,0,.9,0,.1,0,.2,0,.3,0,.1,0,.2,0,.4-.1,0,0,.1,0,.2,0,0,0,0,0,.1,0,.1,0,.2,0,.3,0,.1,0,.3,0,.4,0,0,0,.1,0,.2,0,0,0,0,0,.1,0,.1,0,.2-.1.3-.2,0,0,.1,0,.1,0,0,0,0,0,0,0,0,0,.2,0,.2-.1,0,0,0,0,0-.1,0,0,0,0,0,0,0,0,0-.2,0-.2,0,0,0-.1,0-.2,0,0,0-.2,0-.3,0,0,0-.1,0-.2,0,0,0-.2,0-.3,0-.1,0-.1,0-.2,0-.2,0-.4,0-.6v-1.1c0-.1,0-.2,0-.3,0,0,0-.1,0-.2,0-.4,0-.9,0-1.3s0-.6,0-.9c0-.2,0-.4,0-.7-.1-.6,0-1.2,0-1.8v-1.6c0-.2,0-.4,0-.6,0-.1,0-.3,0-.4,0,0,0,0,0-.2,0-.4,0-.8,0-1.3s0-.4,0-.5c0-.1,0-.2-.1-.3,0,0,0-.1,0-.2,0,0,0,0,0-.1,0-.1,0-.2-.1-.3-.2-.2-.3-.2-.5-.3,0,0-.2,0-.2,0-.1,0-.2,0-.3,0-.4,0-.8,0-1.2,0-.3,0-.6,0-.9,0-.1,0-.2,0-.4,0-.2,0-.4,0-.5,0-.2,0-.5,0-.7,0-.2,0-.5,0-.7,0-.3,0-.7,0-1.1,0-.4,0-.9,0-1.3,0-.6,0-1.1,0-1.7,0h0Z"/>
  </g>
</svg>